<svg width="180" height="34" viewBox="0 0 180 34" fill="none" xmlns="http://www.w3.org/2000/svg">
<path d="M163.401 33.6887V29.7484H163.872C166.052 29.7484 167.272 28.9084 168.276 26.9075L168.598 26.2556L161.571 7.91625H166.157L170.854 21.4786L175.52 7.91625H180L171.785 29.0641C170.424 31.9504 168.254 33.5265 163.872 33.6887H163.401ZM149.207 26.8069V8.20813H153.216V11.3117C154.65 9.2005 156.766 7.91625 159.341 7.91625H159.663L161.275 12.1063H159.341C155.472 12.1063 153.216 14.3277 153.216 17.7556V26.8005H149.207V26.8102V26.8069ZM137.592 7.32278C131.999 7.32278 127.808 11.5128 127.808 17.0649C127.808 22.6169 131.999 26.8069 137.592 26.8069C143.184 26.8069 147.375 22.6169 147.375 17.0649C147.375 11.5128 143.184 7.32278 137.592 7.32278ZM137.592 22.8667C134.373 22.8667 131.935 20.3533 131.935 17.0649C131.935 13.7764 134.363 11.2631 137.592 11.2631C140.82 11.2631 143.216 13.7764 143.216 17.0649C143.216 20.3533 140.82 22.8667 137.592 22.8667ZM125.272 26.8069C121.295 26.8069 119.147 24.7606 119.147 21.083V11.9279H116.387V8.20488H117.93C118.86 8.20488 119.361 7.69248 119.361 6.74552V3.17493H123.156V8.20488H127.35V11.9279H123.156V20.4279C123.156 22.0721 123.841 23.0515 125.52 23.0515H127.35V26.8069H125.272ZM108.306 27.0956C103.902 27.0956 101.005 24.6892 101.005 21.1868H105.091C105.091 22.6137 106.416 23.5607 108.351 23.5607C110.148 23.5607 111.324 22.724 111.324 21.5597C111.324 18.2064 101.295 20.0679 101.295 13.4618C101.295 9.8491 104.128 7.62762 108.169 7.62762C112.21 7.62762 115.119 9.92369 115.119 13.277H111.034C111.034 12.0025 109.848 11.1236 108.137 11.1236C106.426 11.1236 105.345 11.8857 105.345 13.0176C105.345 16.2606 115.406 14.4769 115.406 21.1154C115.406 24.7282 112.573 27.0891 108.319 27.0891L108.309 27.0988H108.306V27.0956ZM95.3042 26.8069V0.554559H99.3131V26.8069H95.3042ZM88.5325 26.8069V0.554559H92.5414V26.8069H88.5325ZM75.9515 27.2448C71.761 27.2448 68.9695 24.4039 68.9695 20.0614V8.20813H72.9783V18.8518C72.9783 21.5176 74.6577 23.3045 77.2453 23.3045C79.9699 23.3045 81.7895 21.4754 81.7895 18.7869V8.20813H85.7983V26.8102H81.7895V24.5141C80.3874 26.2978 78.3893 27.2448 75.9515 27.2448ZM56.5223 34V30.1765C58.3801 30.1765 58.8422 29.1063 58.8422 27.2869V11.9668H56.1749V8.17894H58.8422V6.23636C58.8422 2.22472 61.1685 0 65.5023 0H67.1307V3.82354H65.8593C64.0014 3.82354 62.9148 4.89699 62.9148 6.71633V8.16921H67.1307V11.9571H62.9148V27.7636C62.9148 31.7753 60.8562 33.9968 56.5191 33.9968L56.5223 34ZM47.9246 26.8069V22.7661H31.4016L45.6302 14.4639L45.713 14.4153L43.7245 10.9193L29.4099 19.2701L37.6252 4.88726L37.673 4.80294L34.2633 2.81171L34.2155 2.78253L25.9524 17.2497V0.551316H21.9658V17.2659L13.7537 2.87982L13.7059 2.7955L10.2962 4.78672L10.2484 4.81591L18.5115 19.2831L4.27972 10.9809L4.19687 10.9323L2.20837 14.4283L16.5198 22.7791H0V26.8102H14.9009C19.1201 26.3659 21.3859 23.9758 22.5458 22.0462C23.4158 20.5965 23.8077 19.189 23.9671 18.4496C24.1264 19.189 24.5184 20.5965 25.3883 22.0462C26.5483 23.9725 28.814 26.3626 33.0428 26.8102H47.9246V26.8069Z" fill="white"/>
</svg>
