<svg width="304" height="64" viewBox="0 0 304 64" fill="none" xmlns="http://www.w3.org/2000/svg">
<path d="M76.9759 38.319V21.7862H87.7707V25.2844H80.7528V28.4233H86.8203V31.9215H80.7528V38.319H76.9759Z" fill="#9E36F1"/>
<path d="M93.8506 38.6065C91.097 38.6065 89.2695 36.7855 89.2695 34.0061V26.0991H92.8271V32.9518C92.8271 34.3176 93.7043 35.2281 95.0446 35.2281C96.4822 35.2281 97.4569 34.2936 97.4569 32.9039V26.0991H101.015V33.9582C101.015 34.5811 101.38 34.9406 102.014 34.9406H102.257V38.319H101.258C99.5525 38.319 98.4073 37.7679 97.8712 36.6657C96.8965 37.9356 95.5319 38.6065 93.8506 38.6065Z" fill="#9E36F1"/>
<path d="M108.555 38.319C105.704 38.319 104.242 37.0251 104.242 34.5093V21.0674H107.8V33.7425C107.8 34.5093 108.263 34.9406 109.067 34.9406H109.822V38.319H108.555Z" fill="#9E36F1"/>
<path d="M115.718 38.319C112.867 38.319 111.405 37.0251 111.405 34.5093V21.0674H114.962V33.7425C114.962 34.5093 115.425 34.9406 116.229 34.9406H116.985V38.319H115.718Z" fill="#9E36F1"/>
<path d="M123.314 38.6065C120.147 38.6065 118.002 36.8814 118.002 34.6051H121.56C121.56 35.3239 122.291 35.8271 123.314 35.8271C124.216 35.8271 124.874 35.4198 124.874 34.8687C124.874 33.0716 118.197 34.1738 118.197 29.7651C118.197 27.1773 120.415 25.8116 123.144 25.8116C126.117 25.8116 128.212 27.4409 128.212 29.6453H124.679C124.679 28.9983 124.021 28.567 123.12 28.567C122.315 28.567 121.706 28.9264 121.706 29.4775C121.706 31.2027 128.407 30.1484 128.407 34.5093C128.407 36.9532 126.336 38.6065 123.314 38.6065Z" fill="#9E36F1"/>
<path d="M135.615 38.319C133.008 38.319 131.229 36.7616 131.229 34.4374V29.2859H129.377V26.0991H130.4C131.083 26.0991 131.424 25.7637 131.424 25.0928V22.8884H134.787V26.0991H138.856V29.2859H134.787V34.1019C134.787 34.7249 135.225 35.1322 135.834 35.1322C136.517 35.1322 136.931 34.653 136.931 33.8623H140.099C140.099 36.5699 138.344 38.319 135.615 38.319Z" fill="#9E36F1"/>
<path d="M147.525 38.6065C143.699 38.6065 140.824 35.8511 140.824 32.209C140.824 28.567 143.699 25.8116 147.525 25.8116C151.35 25.8116 154.226 28.567 154.226 32.209C154.226 35.8511 151.35 38.6065 147.525 38.6065ZM147.525 35.2281C149.279 35.2281 150.571 33.9342 150.571 32.209C150.571 30.4839 149.279 29.19 147.525 29.19C145.77 29.19 144.479 30.4839 144.479 32.209C144.479 33.9342 145.77 35.2281 147.525 35.2281Z" fill="#9E36F1"/>
<path d="M156.332 38.319V26.0991H159.89V27.8003C160.84 26.6023 162.132 25.9074 163.642 25.9074H164.13V29.5015H163.642C161.23 29.5015 159.89 30.7235 159.89 32.6164V38.319H156.332Z" fill="#9E36F1"/>
<path d="M166.836 43.1111V39.7087H167.201C168.639 39.7087 169.394 39.2055 170.028 38.0554L165.081 26.0991H169.15L172.026 33.8623L174.877 26.0991H178.849L173.147 39.8764C172.172 42.2246 170.588 43.1111 167.201 43.1111H166.836Z" fill="#9E36F1"/>
<path d="M184.211 38.319L190.522 21.7862H194.981L201.317 38.319H197.175L196.151 35.4198H189.304L188.256 38.319H184.211ZM190.522 31.9934H194.908L192.715 25.8835L190.522 31.9934Z" fill="#9E36F1"/>
<path d="M202.687 38.319V26.0991H206.245V27.2971C207.22 26.3147 208.487 25.8116 210.022 25.8116C212.873 25.8116 214.774 27.6565 214.774 30.4599V33.9582C214.774 34.5811 215.139 34.9406 215.773 34.9406H216.016V38.319H215.017C212.508 38.319 211.216 37.097 211.216 34.7249V31.634C211.216 30.1484 210.266 29.19 208.828 29.19C207.293 29.19 206.245 30.1724 206.245 31.6819V38.319H202.687Z" fill="#9E36F1"/>
<path d="M217.427 43.1111V39.7087H217.792C219.23 39.7087 219.985 39.2055 220.619 38.0554L215.672 26.0991H219.741L222.617 33.8623L225.468 26.0991H229.44L223.738 39.8764C222.763 42.2246 221.179 43.1111 217.792 43.1111H217.427Z" fill="#9E36F1"/>
<path d="M234.337 38.319L229.975 26.0991H234.02L236.262 33.7665L238.626 26.0991H242.257L244.596 33.7665L246.838 26.0991H250.785L246.423 38.319H242.768L240.38 30.3641L237.992 38.319H234.337Z" fill="#9E36F1"/>
<path d="M252.375 38.319V21.0674H255.933V27.393C256.908 26.3627 258.175 25.8116 259.71 25.8116C262.561 25.8116 264.462 27.6565 264.462 30.4599V33.9582C264.462 34.5811 264.827 34.9406 265.461 34.9406H265.704V38.319H264.705C262.196 38.319 260.904 37.097 260.904 34.7249V31.634C260.904 30.1484 259.954 29.19 258.516 29.19C256.981 29.19 255.933 30.1724 255.933 31.6819V38.319H252.375Z" fill="#9E36F1"/>
<path d="M273.408 38.6065C269.558 38.6065 266.683 35.8511 266.683 32.209C266.683 28.567 269.558 25.8116 273.384 25.8116C277.185 25.8116 280.085 28.5431 280.085 32.2809C280.085 32.6164 280.06 33.0237 279.987 33.3352H270.484C270.874 34.7249 272.019 35.6114 273.505 35.6114C274.651 35.6114 275.577 35.1322 276.088 34.4613H279.89C278.964 36.9293 276.478 38.6065 273.408 38.6065ZM273.384 28.8066C271.97 28.8066 270.898 29.6692 270.508 31.011H276.283C275.918 29.6692 274.797 28.8066 273.384 28.8066Z" fill="#9E36F1"/>
<path d="M282.12 38.319V26.0991H285.677V27.8003C286.628 26.6023 287.919 25.9074 289.43 25.9074H289.917V29.5015H289.43C287.018 29.5015 285.677 30.7235 285.677 32.6164V38.319H282.12Z" fill="#9E36F1"/>
<path d="M297.323 38.6065C293.473 38.6065 290.598 35.8511 290.598 32.209C290.598 28.567 293.473 25.8116 297.299 25.8116C301.1 25.8116 304 28.5431 304 32.2809C304 32.6164 303.976 33.0237 303.903 33.3352H294.399C294.789 34.7249 295.934 35.6114 297.421 35.6114C298.566 35.6114 299.492 35.1322 300.004 34.4613H303.805C302.879 36.9293 300.394 38.6065 297.323 38.6065ZM297.299 28.8066C295.886 28.8066 294.813 29.6692 294.424 31.011H300.199C299.833 29.6692 298.712 28.8066 297.299 28.8066Z" fill="#9E36F1"/>
<path fill-rule="evenodd" clip-rule="evenodd" d="M55.783 36.8294C55.783 38.808 55.0975 40.6308 53.9447 42.0641C52.3711 37.8109 48.5542 34.6327 43.9427 33.994C42.1979 30.0368 38.2563 27.3884 33.785 27.3884C32.6633 27.3884 31.5728 27.5597 30.4978 27.8713C29.1736 26.0485 27.4443 24.6152 25.4657 23.6493C26.4472 23.1352 27.5689 22.8548 28.7529 22.8548C30.0616 22.8548 31.2612 23.1975 32.3206 23.8051C33.8941 20.6269 37.1813 18.4614 40.9671 18.4614C46.2952 18.4614 50.6263 22.7769 50.6263 28.1206C50.6263 28.4166 50.6263 28.7282 50.5795 29.0086C53.6331 30.2861 55.783 33.3085 55.783 36.8138V36.8294Z" fill="#DCB2FF"/>
<path fill-rule="evenodd" clip-rule="evenodd" d="M66.6724 28.7149C65.2079 28.4189 63.9304 27.9983 63.1047 27.3128C62.279 26.6273 61.7493 25.7393 61.7493 23.9788V14.5689C61.7493 12.715 60.8613 11.2505 59.6617 10.4093C58.6335 9.69261 57.4494 9.36545 56.3433 9.30313C56.2966 9.30313 56.2342 9.27197 56.1875 9.27197H15.6969C14.6064 9.34987 13.4379 9.67703 12.4097 10.4093C11.2257 11.235 10.3221 12.6994 10.3221 14.5534V23.9788C10.3221 24.6332 10.2442 25.1784 10.1039 25.6302C10.8985 24.9603 11.7553 24.3683 12.6745 23.8854V14.5534C12.6745 13.3849 13.0952 12.7773 13.7495 12.3099C14.3104 11.9205 15.1049 11.8893 15.8371 11.8893H56.1719C56.1719 11.8893 56.2498 11.8893 56.2966 11.8581C56.3433 11.8581 56.4056 11.8893 56.4368 11.8893C57.2625 11.8893 57.6364 11.8426 58.2907 12.3099C58.945 12.7773 59.3657 13.3693 59.3657 14.5534V23.9633C59.3657 26.269 60.2381 28.0139 61.5779 29.12C61.9674 29.4472 62.466 29.6185 62.9022 29.8522C62.4504 30.0703 61.983 30.2573 61.5779 30.5845C60.2537 31.675 59.3657 33.4355 59.3657 35.7412V45.1511C59.3657 46.3351 58.945 46.9271 58.2907 47.3945C57.6364 47.8619 56.6705 48.0956 55.8448 48.0956C55.5332 48.0956 55.2216 48.2202 55.0035 48.4383C54.7854 48.6564 54.6452 48.968 54.6452 49.2796C54.6452 49.5912 54.7698 49.9028 55.0035 50.1209C55.2216 50.339 55.5955 50.7129 55.9071 50.7129C57.1378 50.7129 58.4777 50.1521 59.6461 49.3108C60.8301 48.4851 61.7337 47.0206 61.7337 45.1511V35.7412C61.7337 33.9963 62.2634 33.0927 63.0891 32.4072C63.9148 31.7217 65.1923 31.3011 66.6568 31.0051C67.2176 30.896 67.6383 30.4131 67.6383 29.8522C67.6383 29.2914 67.2332 28.7928 66.6568 28.6994L66.6724 28.7149Z" fill="black"/>
<path fill-rule="evenodd" clip-rule="evenodd" d="M16.6164 17.8267C17.52 17.8267 18.2678 17.0945 18.2678 16.1753C18.2678 15.2562 17.5356 14.5239 16.6164 14.5239C15.6973 14.5239 14.965 15.2562 14.965 16.1753C14.965 17.0945 15.6973 17.8267 16.6164 17.8267Z" fill="black"/>
<path fill-rule="evenodd" clip-rule="evenodd" d="M21.882 17.8267C22.7856 17.8267 23.5334 17.0945 23.5334 16.1753C23.5334 15.2562 22.8012 14.5239 21.882 14.5239C20.9628 14.5239 20.2306 15.2562 20.2306 16.1753C20.2306 17.0945 20.9628 17.8267 21.882 17.8267Z" fill="black"/>
<path fill-rule="evenodd" clip-rule="evenodd" d="M27.1477 17.8267C28.0513 17.8267 28.7992 17.0945 28.7992 16.1753C28.7992 15.2562 28.0669 14.5239 27.1477 14.5239C26.2286 14.5239 25.4963 15.2562 25.4963 16.1753C25.4963 17.0945 26.2286 17.8267 27.1477 17.8267Z" fill="black"/>
<path fill-rule="evenodd" clip-rule="evenodd" d="M51.7168 50.7605C50.0966 54.2503 46.5756 56.665 42.4783 56.665H28.4258C24.8581 56.665 22.864 56.665 21.5397 56.665H17.5826C16.9282 56.665 17.2866 56.665 16.2739 56.665C14.9653 56.665 13.5631 56.665 10.7588 56.665H10.6186C8.92049 56.665 7.3314 56.2444 5.92926 55.5122C6.97307 55.2629 7.95457 54.7332 8.88933 54.1256C9.20091 53.9231 9.5125 53.6894 9.82408 53.4557C10.198 53.1753 10.5719 52.8793 10.9458 52.5677C11.3664 52.2249 11.7715 51.8666 12.1921 51.5083C14.9808 49.0935 17.9097 46.3048 21.3683 44.4197C21.9604 44.077 22.5835 43.781 23.2067 43.5161L23.9545 45.5103L24.9516 48.1899C25.528 49.7323 27.0081 50.7605 28.6595 50.7605H51.7324H51.7168Z" fill="#932FEE"/>
<path fill-rule="evenodd" clip-rule="evenodd" d="M52.652 46.5218C52.652 45.5403 52.5118 44.59 52.247 43.6864C51.0162 39.48 47.1214 36.3953 42.4943 36.3953H42.3697C41.4349 32.5939 38.0075 29.7741 33.9257 29.7741C32.3054 29.7741 30.8098 30.2103 29.5323 30.9737C28.2548 28.4031 26.0582 26.3622 23.3629 25.3028C22.0543 24.7887 20.621 24.4927 19.1254 24.4927C16.4925 24.4927 14.0932 25.3651 12.1614 26.814C11.5071 27.2969 10.9462 27.8266 10.4321 28.4342C10.3542 28.5121 10.2919 28.6056 10.214 28.6835C9.93358 29.0263 9.69989 29.369 9.4662 29.7273C9.41946 29.7896 9.37272 29.852 9.34156 29.9299C9.29483 29.9766 9.26367 30.0545 9.21693 30.1324C8.15754 31.8617 7.56552 33.9026 7.56552 36.0837C7.56552 36.3641 7.56552 36.5978 7.59668 36.8626C3.49933 38.1557 0.523682 42.0038 0.523682 46.5218C0.523682 48.0642 0.866426 49.5442 1.4896 50.8373C2.14393 51.7409 2.72036 52.3173 3.26564 52.6445C3.88881 53.0184 4.48082 53.1118 5.104 53.0028C5.7739 52.8782 6.56845 52.5354 7.50321 51.9122C8.09522 51.5072 8.71839 51.0242 9.3883 50.4789C9.41946 50.4478 9.43504 50.4322 9.4662 50.4011C9.59083 50.2764 9.71547 50.1829 9.82452 50.0739C10.2919 49.6377 10.6502 49.0612 10.8216 48.3913L14.8722 33.8558C15.324 32.1733 16.7573 31.0516 18.5022 30.9737C20.2627 30.9113 21.7738 31.9084 22.3814 33.5442L24.8585 40.181C26.1049 39.8227 27.4136 39.6046 28.8001 39.5579C29.5323 39.5267 30.1399 40.0876 30.1711 40.8198C30.2022 41.552 29.6414 42.1596 28.9092 42.1908C27.8186 42.2375 26.7592 42.3933 25.7621 42.6581L27.4759 47.2696C27.6628 47.7837 28.1458 48.1265 28.7066 48.1265H52.543C52.652 47.55 52.652 47.1294 52.652 46.5218ZM33.0065 44.4498C32.7572 44.7146 32.4145 44.8392 32.0873 44.8392C31.7602 44.8392 31.4174 44.7146 31.1526 44.4498C30.6385 43.9356 30.6385 43.1099 31.1526 42.5958L32.8507 40.8977L31.1526 39.1995C30.6385 38.6854 30.6385 37.8597 31.1526 37.3456C31.6667 36.8315 32.508 36.8315 33.0065 37.3456L36.5742 40.9133L33.0065 44.4809V44.4498Z" fill="#932FEE"/>
<path d="M22.2871 41.0398C21.664 41.3202 21.0408 41.6162 20.4332 41.9278C18.0496 43.1742 15.9464 44.7944 14.0613 46.3835L17.3329 34.6056C17.5666 33.7487 18.3144 33.6396 18.5481 33.6396C18.7818 33.6396 19.5296 33.6708 19.8412 34.4965L21.4614 38.8743L22.2871 41.0554V41.0398Z" fill="#932FEE"/>
</svg>
