<svg width="193" height="64" viewBox="0 0 193 64" fill="none" xmlns="http://www.w3.org/2000/svg">
<path d="M77.2117 27.6502V11.2179H87.7617V14.6948H80.903V17.8146H86.8329V21.2916H80.903V27.6502H77.2117Z" fill="#9E36F1"/>
<path d="M93.7037 27.9359C91.0126 27.9359 89.2265 26.126 89.2265 23.3635V15.5046H92.7035V22.3156C92.7035 23.6731 93.5608 24.578 94.8707 24.578C96.2757 24.578 97.2283 23.6493 97.2283 22.268V15.5046H100.705V23.3158C100.705 23.935 101.063 24.2923 101.682 24.2923H101.92V27.6502H100.943C99.2764 27.6502 98.1571 27.1024 97.6332 26.0069C96.6806 27.2691 95.347 27.9359 93.7037 27.9359Z" fill="#9E36F1"/>
<path d="M108.075 27.6502C105.288 27.6502 103.859 26.3642 103.859 23.8636V10.5034H107.336V23.1015C107.336 23.8636 107.789 24.2923 108.575 24.2923H109.313V27.6502H108.075Z" fill="#9E36F1"/>
<path d="M115.075 27.6502C112.289 27.6502 110.86 26.3642 110.86 23.8636V10.5034H114.337V23.1015C114.337 23.8636 114.789 24.2923 115.575 24.2923H116.313V27.6502H115.075Z" fill="#9E36F1"/>
<path d="M122.5 27.9359C119.404 27.9359 117.308 26.2213 117.308 23.9589H120.785C120.785 24.6733 121.499 25.1734 122.5 25.1734C123.381 25.1734 124.024 24.7686 124.024 24.2208C124.024 22.4347 117.498 23.5302 117.498 19.1482C117.498 16.5762 119.666 15.2188 122.333 15.2188C125.238 15.2188 127.286 16.8382 127.286 19.0292H123.833C123.833 18.3862 123.19 17.9575 122.309 17.9575C121.523 17.9575 120.928 18.3147 120.928 18.8625C120.928 20.5771 127.477 19.5293 127.477 23.8636C127.477 26.2927 125.453 27.9359 122.5 27.9359Z" fill="#9E36F1"/>
<path d="M134.521 27.6502C131.973 27.6502 130.235 26.1022 130.235 23.7921V18.6719H128.425V15.5046H129.425C130.092 15.5046 130.425 15.1711 130.425 14.5043V12.3134H133.712V15.5046H137.689V18.6719H133.712V23.4587C133.712 24.0779 134.14 24.4828 134.736 24.4828C135.402 24.4828 135.807 24.0065 135.807 23.2206H138.903C138.903 25.9117 137.188 27.6502 134.521 27.6502Z" fill="#9E36F1"/>
<path d="M146.161 27.9359C142.422 27.9359 139.612 25.1972 139.612 21.5774C139.612 17.9575 142.422 15.2188 146.161 15.2188C149.9 15.2188 152.71 17.9575 152.71 21.5774C152.71 25.1972 149.9 27.9359 146.161 27.9359ZM146.161 24.578C147.875 24.578 149.138 23.292 149.138 21.5774C149.138 19.8627 147.875 18.5767 146.161 18.5767C144.446 18.5767 143.184 19.8627 143.184 21.5774C143.184 23.292 144.446 24.578 146.161 24.578Z" fill="#9E36F1"/>
<path d="M154.769 27.6502V15.5046H158.246V17.1954C159.174 16.0047 160.436 15.314 161.913 15.314H162.389V18.8863H161.913C159.555 18.8863 158.246 20.1008 158.246 21.9822V27.6502H154.769Z" fill="#9E36F1"/>
<path d="M165.034 32.4131V29.0314H165.391C166.796 29.0314 167.534 28.5313 168.153 27.3882L163.319 15.5046H167.296L170.106 23.2206L172.893 15.5046H176.774L171.202 29.1981C170.249 31.532 168.701 32.4131 165.391 32.4131H165.034Z" fill="#9E36F1"/>
<path d="M75.5923 50.7646L81.7604 34.3324H86.1185L92.3104 50.7646H88.2618L87.2616 47.883H80.5696L79.5456 50.7646H75.5923ZM81.7604 44.4775H86.047L83.9037 38.4047L81.7604 44.4775Z" fill="#9E36F1"/>
<path d="M93.6498 50.7646V38.619H97.1267V39.8098C98.0793 38.8334 99.3177 38.3333 100.818 38.3333C103.604 38.3333 105.462 40.167 105.462 42.9534V46.4303C105.462 47.0495 105.819 47.4067 106.438 47.4067H106.677V50.7646H105.7C103.247 50.7646 101.985 49.5501 101.985 47.1924V44.1203C101.985 42.6438 101.056 41.6912 99.6511 41.6912C98.1508 41.6912 97.1267 42.6676 97.1267 44.1679V50.7646H93.6498Z" fill="#9E36F1"/>
<path d="M108.055 55.5276V52.1459H108.412C109.817 52.1459 110.555 51.6458 111.174 50.5027L106.34 38.619H110.317L113.127 46.3351L115.914 38.619H119.795L114.223 52.3126C113.27 54.6465 111.722 55.5276 108.412 55.5276H108.055Z" fill="#9E36F1"/>
<path d="M124.582 50.7646L120.319 38.619H124.272L126.463 46.2398L128.773 38.619H132.322L134.608 46.2398L136.799 38.619H140.657L136.394 50.7646H132.822L130.488 42.8581L128.154 50.7646H124.582Z" fill="#9E36F1"/>
<path d="M142.211 50.7646V33.6179H145.688V39.905C146.641 38.881 147.879 38.3333 149.379 38.3333C152.166 38.3333 154.023 40.167 154.023 42.9534V46.4303C154.023 47.0495 154.38 47.4067 155 47.4067H155.238V50.7646H154.261C151.808 50.7646 150.546 49.5501 150.546 47.1924V44.1203C150.546 42.6438 149.617 41.6912 148.212 41.6912C146.712 41.6912 145.688 42.6676 145.688 44.1679V50.7646H142.211Z" fill="#9E36F1"/>
<path d="M162.767 51.0504C159.004 51.0504 156.194 48.3117 156.194 44.6918C156.194 41.072 159.004 38.3333 162.743 38.3333C166.458 38.3333 169.292 41.0482 169.292 44.7633C169.292 45.0967 169.268 45.5016 169.197 45.8111H159.909C160.29 47.1924 161.409 48.0736 162.862 48.0736C163.981 48.0736 164.886 47.5973 165.386 46.9304H169.101C168.196 49.3834 165.767 51.0504 162.767 51.0504ZM162.743 41.3101C161.362 41.3101 160.314 42.1675 159.933 43.5011H165.577C165.22 42.1675 164.124 41.3101 162.743 41.3101Z" fill="#9E36F1"/>
<path d="M171.281 50.7646V38.619H174.758V40.3099C175.687 39.1192 176.949 38.4285 178.425 38.4285H178.902V42.0008H178.425C176.068 42.0008 174.758 43.2153 174.758 45.0967V50.7646H171.281Z" fill="#9E36F1"/>
<path d="M186.14 51.0504C182.377 51.0504 179.567 48.3117 179.567 44.6918C179.567 41.072 182.377 38.3333 186.116 38.3333C189.831 38.3333 192.665 41.0482 192.665 44.7633C192.665 45.0967 192.641 45.5016 192.57 45.8111H183.282C183.663 47.1924 184.782 48.0736 186.235 48.0736C187.354 48.0736 188.259 47.5973 188.759 46.9304H192.474C191.569 49.3834 189.14 51.0504 186.14 51.0504ZM186.116 41.3101C184.735 41.3101 183.687 42.1675 183.306 43.5011H188.95C188.593 42.1675 187.497 41.3101 186.116 41.3101Z" fill="#9E36F1"/>
<path fill-rule="evenodd" clip-rule="evenodd" d="M56.7758 37.856C56.7758 39.8698 56.0781 41.725 54.9047 43.1838C53.3032 38.855 49.4184 35.6202 44.7248 34.9701C42.9489 30.9426 38.9372 28.2469 34.3863 28.2469C33.2447 28.2469 32.1347 28.4214 31.0406 28.7385C29.6928 26.8833 27.9327 25.4245 25.9189 24.4414C26.9179 23.9181 28.0596 23.6327 29.2647 23.6327C30.5966 23.6327 31.8176 23.9815 32.8958 24.5999C34.4973 21.3652 37.8431 19.1611 41.6962 19.1611C47.1192 19.1611 51.5273 23.5534 51.5273 28.9922C51.5273 29.2935 51.5273 29.6106 51.4797 29.896C54.5876 31.1963 56.7758 34.2724 56.7758 37.8402V37.856Z" fill="#DCB2FF"/>
<path fill-rule="evenodd" clip-rule="evenodd" d="M67.859 29.5971C66.3685 29.2958 65.0683 28.8677 64.2279 28.17C63.3875 27.4723 62.8483 26.5685 62.8483 24.7767V15.1993C62.8483 13.3124 61.9445 11.8219 60.7236 10.9656C59.677 10.2362 58.4719 9.90324 57.3461 9.83982C57.2985 9.83982 57.2351 9.80811 57.1875 9.80811H15.9763C14.8664 9.88739 13.6771 10.2204 12.6306 10.9656C11.4255 11.806 10.5058 13.2966 10.5058 15.1835V24.7767C10.5058 25.4427 10.4265 25.9977 10.2838 26.4575C11.0925 25.7757 11.9646 25.1731 12.9001 24.6816V15.1835C12.9001 13.9942 13.3283 13.3758 13.9943 12.9001C14.5651 12.5037 15.3738 12.472 16.119 12.472H57.1717C57.1717 12.472 57.251 12.472 57.2985 12.4403C57.3461 12.4403 57.4095 12.472 57.4412 12.472C58.2816 12.472 58.6622 12.4244 59.3282 12.9001C59.9942 13.3758 60.4223 13.9784 60.4223 15.1835V24.7608C60.4223 27.1076 61.3103 28.8836 62.6739 30.0094C63.0703 30.3424 63.5777 30.5168 64.0217 30.7546C63.5619 30.9766 63.0862 31.1669 62.6739 31.4999C61.3261 32.6099 60.4223 34.4016 60.4223 36.7484V46.3258C60.4223 47.5309 59.9942 48.1334 59.3282 48.6091C58.6622 49.0848 57.6791 49.3227 56.8387 49.3227C56.5216 49.3227 56.2044 49.4495 55.9824 49.6715C55.7605 49.8935 55.6177 50.2106 55.6177 50.5278C55.6177 50.8449 55.7446 51.162 55.9824 51.384C56.2044 51.606 56.585 51.9866 56.9021 51.9866C58.1548 51.9866 59.5185 51.4157 60.7077 50.5595C61.9128 49.7191 62.8325 48.2286 62.8325 46.3258V36.7484C62.8325 34.9725 63.3716 34.0528 64.212 33.3551C65.0524 32.6574 66.3526 32.2293 67.8432 31.928C68.414 31.817 68.8421 31.3255 68.8421 30.7546C68.8421 30.1838 68.4299 29.6764 67.8432 29.5812L67.859 29.5971Z" fill="black"/>
<path fill-rule="evenodd" clip-rule="evenodd" d="M16.9122 18.5149C17.8319 18.5149 18.593 17.7697 18.593 16.8341C18.593 15.8986 17.8477 15.1533 16.9122 15.1533C15.9766 15.1533 15.2314 15.8986 15.2314 16.8341C15.2314 17.7697 15.9766 18.5149 16.9122 18.5149Z" fill="black"/>
<path fill-rule="evenodd" clip-rule="evenodd" d="M22.2714 18.5149C23.1911 18.5149 23.9522 17.7697 23.9522 16.8341C23.9522 15.8986 23.207 15.1533 22.2714 15.1533C21.3359 15.1533 20.5906 15.8986 20.5906 16.8341C20.5906 17.7697 21.3359 18.5149 22.2714 18.5149Z" fill="black"/>
<path fill-rule="evenodd" clip-rule="evenodd" d="M27.6309 18.5149C28.5506 18.5149 29.3117 17.7697 29.3117 16.8341C29.3117 15.8986 28.5664 15.1533 27.6309 15.1533C26.6953 15.1533 25.9501 15.8986 25.9501 16.8341C25.9501 17.7697 26.6953 18.5149 27.6309 18.5149Z" fill="black"/>
<path fill-rule="evenodd" clip-rule="evenodd" d="M52.6372 52.0349C50.9882 55.5868 47.4046 58.0446 43.2343 58.0446H28.9317C25.3005 58.0446 23.2709 58.0446 21.9231 58.0446H17.8955C17.2295 58.0446 17.5942 58.0446 16.5636 58.0446C15.2316 58.0446 13.8045 58.0446 10.9503 58.0446H10.8076C9.07925 58.0446 7.46188 57.6164 6.03479 56.8712C7.09718 56.6175 8.09614 56.0784 9.04754 55.4599C9.36467 55.2538 9.6818 55.016 9.99893 54.7781C10.3795 54.4927 10.76 54.1914 11.1406 53.8743C11.5687 53.5254 11.981 53.1607 12.4091 52.796C15.2475 50.3383 18.2285 47.4999 21.7487 45.5813C22.3512 45.2325 22.9855 44.9312 23.6197 44.6616L24.3808 46.6913L25.3957 49.4186C25.9824 50.9884 27.4887 52.0349 29.1695 52.0349H52.6531H52.6372Z" fill="#932FEE"/>
<path fill-rule="evenodd" clip-rule="evenodd" d="M53.5891 47.7205C53.5891 46.7215 53.4464 45.7543 53.1768 44.8346C51.9242 40.5533 47.96 37.4137 43.2506 37.4137H43.1238C42.1724 33.5447 38.6839 30.6747 34.5295 30.6747C32.8804 30.6747 31.3582 31.1187 30.058 31.8956C28.7577 29.2793 26.5219 27.2021 23.7787 26.1239C22.4468 25.6006 20.988 25.2993 19.4658 25.2993C16.786 25.2993 14.3441 26.1873 12.3779 27.6619C11.7119 28.1535 11.1411 28.6926 10.6178 29.311C10.5385 29.3903 10.4751 29.4855 10.3958 29.5647C10.1104 29.9136 9.87254 30.2624 9.63469 30.6271C9.58712 30.6905 9.53955 30.754 9.50784 30.8333C9.46027 30.8808 9.42856 30.9601 9.38099 31.0394C8.30274 32.7995 7.70019 34.8767 7.70019 37.0966C7.70019 37.382 7.70019 37.6199 7.7319 37.8894C3.56162 39.2055 0.53302 43.1221 0.53302 47.7205C0.53302 49.2903 0.881865 50.7967 1.51613 52.1128C2.1821 53.0325 2.7688 53.6192 3.32378 53.9521C3.95804 54.3327 4.56059 54.4278 5.19485 54.3168C5.87668 54.19 6.68537 53.8411 7.63676 53.2069C8.23931 52.7946 8.87357 52.3031 9.55541 51.7481C9.58712 51.7164 9.60298 51.7005 9.63469 51.6688C9.76154 51.5419 9.8884 51.4468 9.99939 51.3358C10.4751 50.8918 10.8398 50.3051 11.0142 49.6233L15.1369 34.8291C15.5968 33.1166 17.0556 31.9749 18.8315 31.8956C20.6233 31.8322 22.1614 32.847 22.7798 34.512L25.301 41.2669C26.5695 40.9022 27.9015 40.6802 29.3127 40.6326C30.058 40.6009 30.6764 41.1717 30.7081 41.917C30.7398 42.6623 30.1689 43.2807 29.4237 43.3124C28.3137 43.3599 27.2355 43.5185 26.2207 43.7881L27.9649 48.4816C28.1552 49.0049 28.6467 49.3537 29.2176 49.3537H53.4781C53.5891 48.767 53.5891 48.3389 53.5891 47.7205ZM33.594 45.6116C33.3403 45.8811 32.9914 46.008 32.6584 46.008C32.3254 46.008 31.9766 45.8811 31.707 45.6116C31.1838 45.0883 31.1838 44.2479 31.707 43.7246L33.4354 41.9963L31.707 40.2679C31.1838 39.7446 31.1838 38.9043 31.707 38.381C32.2303 37.8577 33.0866 37.8577 33.594 38.381L37.2251 42.0121L33.594 45.6433V45.6116Z" fill="#932FEE"/>
<path d="M22.6838 42.1408C22.0495 42.4262 21.4153 42.7274 20.7969 43.0446C18.3708 44.3131 16.2302 45.9622 14.3115 47.5796L17.6414 35.592C17.8793 34.7199 18.6404 34.6089 18.8782 34.6089C19.1161 34.6089 19.8772 34.6406 20.1943 35.481L21.8434 39.9367L22.6838 42.1566V42.1408Z" fill="#932FEE"/>
</svg>
