<svg width="195" height="64" viewBox="0 0 195 64" fill="none" xmlns="http://www.w3.org/2000/svg">
<path d="M74.2442 26.9143V10.482H84.7942V13.959H77.9355V17.0788H83.8654V20.5557H77.9355V26.9143H74.2442Z" fill="black"/>
<path d="M90.7362 27.2001C88.0451 27.2001 86.259 25.3902 86.259 22.6276V14.7687H89.736V21.5798C89.736 22.9372 90.5933 23.8422 91.9032 23.8422C93.3082 23.8422 94.2608 22.9134 94.2608 21.5322V14.7687H97.7378V22.58C97.7378 23.1992 98.095 23.5564 98.7142 23.5564H98.9524V26.9143H97.976C96.3089 26.9143 95.1896 26.3666 94.6657 25.2711C93.7131 26.5333 92.3795 27.2001 90.7362 27.2001Z" fill="black"/>
<path d="M105.107 26.9143C102.321 26.9143 100.892 25.6283 100.892 23.1278V9.76758H104.369V22.3657C104.369 23.1278 104.821 23.5564 105.607 23.5564H106.346V26.9143H105.107Z" fill="black"/>
<path d="M112.108 26.9143C109.321 26.9143 107.892 25.6283 107.892 23.1278V9.76758H111.369V22.3657C111.369 23.1278 111.822 23.5564 112.608 23.5564H113.346V26.9143H112.108Z" fill="black"/>
<path d="M119.532 27.2001C116.436 27.2001 114.34 25.4854 114.34 23.223H117.817C117.817 23.9375 118.532 24.4376 119.532 24.4376C120.413 24.4376 121.056 24.0327 121.056 23.485C121.056 21.6989 114.531 22.7943 114.531 18.4124C114.531 15.8404 116.698 14.4829 119.365 14.4829C122.271 14.4829 124.319 16.1023 124.319 18.2933H120.866C120.866 17.6503 120.223 17.2217 119.341 17.2217C118.556 17.2217 117.96 17.5789 117.96 18.1266C117.96 19.8413 124.509 18.7934 124.509 23.1278C124.509 25.5569 122.485 27.2001 119.532 27.2001Z" fill="black"/>
<path d="M131.554 26.9143C129.006 26.9143 127.267 25.3664 127.267 23.0563V17.9361H125.457V14.7687H126.457C127.124 14.7687 127.458 14.4353 127.458 13.7685V11.5775H130.744V14.7687H134.721V17.9361H130.744V22.7229C130.744 23.3421 131.173 23.7469 131.768 23.7469C132.435 23.7469 132.84 23.2706 132.84 22.4847H135.936C135.936 25.1758 134.221 26.9143 131.554 26.9143Z" fill="black"/>
<path d="M143.193 27.2001C139.454 27.2001 136.644 24.4614 136.644 20.8415C136.644 17.2217 139.454 14.4829 143.193 14.4829C146.932 14.4829 149.742 17.2217 149.742 20.8415C149.742 24.4614 146.932 27.2001 143.193 27.2001ZM143.193 23.8422C144.908 23.8422 146.17 22.5562 146.17 20.8415C146.17 19.1268 144.908 17.8408 143.193 17.8408C141.479 17.8408 140.216 19.1268 140.216 20.8415C140.216 22.5562 141.479 23.8422 143.193 23.8422Z" fill="black"/>
<path d="M151.801 26.9143V14.7687H155.278V16.4596C156.207 15.2688 157.469 14.5782 158.946 14.5782H159.422V18.1504H158.946C156.588 18.1504 155.278 19.365 155.278 21.2464V26.9143H151.801Z" fill="black"/>
<path d="M162.066 31.6773V28.2956H162.423C163.829 28.2956 164.567 27.7955 165.186 26.6524L160.352 14.7687H164.329L167.139 22.4847L169.925 14.7687H173.807L168.234 28.4623C167.282 30.7962 165.734 31.6773 162.423 31.6773H162.066Z" fill="black"/>
<path d="M78.4594 50.0288L72.8867 33.5965H76.9591L80.3646 44.9086L83.7702 33.5965H87.1043L90.5574 44.9086L93.9153 33.5965H97.8924L92.3435 50.0288H88.6522L85.3896 39.3121L82.1746 50.0288H78.4594Z" fill="black"/>
<path d="M104.029 50.3146C100.29 50.3146 97.4798 47.5759 97.4798 43.956C97.4798 40.3361 100.29 37.5974 104.029 37.5974C107.768 37.5974 110.578 40.3361 110.578 43.956C110.578 47.5759 107.768 50.3146 104.029 50.3146ZM104.029 46.9567C105.744 46.9567 107.006 45.6707 107.006 43.956C107.006 42.2413 105.744 40.9553 104.029 40.9553C102.314 40.9553 101.052 42.2413 101.052 43.956C101.052 45.6707 102.314 46.9567 104.029 46.9567Z" fill="black"/>
<path d="M112.637 50.0288V37.8832H116.114V39.5741C117.042 38.3833 118.305 37.6927 119.781 37.6927H120.257V41.2649H119.781C117.423 41.2649 116.114 42.4795 116.114 44.3609V50.0288H112.637Z" fill="black"/>
<path d="M121.94 50.0288V32.8821H125.417V42.5271L129.609 37.8832H134.015L128.99 43.2654L134.181 50.0288H129.728L126.584 45.8374L125.417 47.0758V50.0288H121.94Z" fill="black"/>
<path d="M136.597 50.0288V41.2411H134.763V38.0737H136.597V36.5019C136.597 34.1681 138.359 32.5963 140.955 32.5963C143.622 32.5963 145.337 34.2395 145.337 36.8353H142.241C142.241 36.1923 141.812 35.7637 141.146 35.7637C140.503 35.7637 140.074 36.1923 140.074 36.8353V38.0737H143.479V41.2411H140.074V50.0288H136.597Z" fill="black"/>
<path d="M150.891 50.3146C147.152 50.3146 144.342 47.5759 144.342 43.956C144.342 40.3361 147.152 37.5974 150.891 37.5974C154.63 37.5974 157.44 40.3361 157.44 43.956C157.44 47.5759 154.63 50.3146 150.891 50.3146ZM150.891 46.9567C152.606 46.9567 153.868 45.6707 153.868 43.956C153.868 42.2413 152.606 40.9553 150.891 40.9553C149.177 40.9553 147.914 42.2413 147.914 43.956C147.914 45.6707 149.177 46.9567 150.891 46.9567Z" fill="black"/>
<path d="M159.499 50.0288V37.8832H162.976V39.5741C163.905 38.3833 165.167 37.6927 166.644 37.6927H167.12V41.2649H166.644C164.286 41.2649 162.976 42.4795 162.976 44.3609V50.0288H159.499Z" fill="black"/>
<path d="M174.334 50.3146C170.595 50.3146 167.785 47.5759 167.785 43.956C167.785 40.3361 170.595 37.5974 174.334 37.5974C177.597 37.5974 180.193 39.7169 180.597 42.67H176.906C176.573 41.646 175.549 40.9553 174.334 40.9553C172.619 40.9553 171.357 42.2413 171.357 43.956C171.357 45.6707 172.619 46.9567 174.334 46.9567C175.549 46.9567 176.573 46.2661 176.906 45.242H180.597C180.193 48.1951 177.597 50.3146 174.334 50.3146Z" fill="black"/>
<path d="M188.475 50.3146C184.712 50.3146 181.902 47.5759 181.902 43.956C181.902 40.3361 184.712 37.5974 188.451 37.5974C192.166 37.5974 195 40.3123 195 44.0275C195 44.3609 194.976 44.7657 194.905 45.0753H185.617C185.998 46.4566 187.117 47.3377 188.57 47.3377C189.689 47.3377 190.594 46.8614 191.094 46.1946H194.809C193.905 48.6475 191.475 50.3146 188.475 50.3146ZM188.451 40.5743C187.07 40.5743 186.022 41.4316 185.641 42.7653H191.285C190.928 41.4316 189.832 40.5743 188.451 40.5743Z" fill="black"/>
<path d="M57.2996 9.42432H17.2821C14.6293 9.42432 12.4427 11.5787 12.4427 14.2476V20.1643H15.1277V14.2476C15.1277 13.074 16.0923 12.1093 17.2821 12.1093H57.2996C58.4733 12.1093 59.438 13.0579 59.438 14.2476V14.7943H62.123V14.2476C62.123 11.5948 59.9685 9.42432 57.2996 9.42432ZM59.438 32.2386V46.1941C59.438 47.3678 58.4894 48.3486 57.2996 48.3486H33.9387V51.0335H57.2996C59.9525 51.0335 62.123 48.863 62.123 46.1941V32.2386H59.438Z" fill="black"/>
<path d="M19.5175 14.7939C20.45 14.7939 21.1896 15.5496 21.1896 16.466C21.1896 17.3985 20.4339 18.1381 19.5175 18.1381C18.585 18.1381 17.8454 17.3825 17.8454 16.466C17.8454 15.5335 18.6011 14.7939 19.5175 14.7939Z" fill="black"/>
<path d="M24.87 14.7939C25.8025 14.7939 26.5421 15.5496 26.5421 16.466C26.5421 17.3985 25.7865 18.1381 24.87 18.1381C23.9375 18.1381 23.1979 17.3825 23.1979 16.466C23.1979 15.5335 23.9536 14.7939 24.87 14.7939Z" fill="black"/>
<path d="M30.2412 14.7939C31.1737 14.7939 31.9133 15.5496 31.9133 16.466C31.9133 17.3985 31.1576 18.1381 30.2412 18.1381C29.3087 18.1381 28.5691 17.3825 28.5691 16.466C28.5691 15.5335 29.3247 14.7939 30.2412 14.7939Z" fill="black"/>
<path d="M27.2174 22.8481C29.4362 22.8481 31.237 24.6329 31.237 26.8677V53.7173C31.237 55.9199 29.4522 57.7368 27.2174 57.7368H11.1081C8.90541 57.7368 7.08853 55.936 7.08853 53.7173V26.8677C7.08853 24.6489 8.88933 22.8481 11.1081 22.8481H27.2174ZM19.1628 44.3306C15.4649 44.3307 12.4586 47.3208 12.4586 51.0347H25.8669C25.8669 47.3368 22.8606 44.3306 19.1628 44.3306ZM19.1628 34.938C16.9429 34.938 15.1432 36.7376 15.1432 38.9575C15.1433 41.1774 16.9429 42.9771 19.1628 42.9771C21.3826 42.977 23.1822 41.1774 23.1823 38.9575C23.1823 36.7376 21.3826 34.938 19.1628 34.938ZM16.4938 26.8188C16.0919 26.8188 15.7213 26.9796 15.4801 27.269C15.4321 27.3331 15.4002 27.3973 15.3522 27.4614C15.2718 27.6061 15.2232 27.7352 15.1911 27.896C15.1589 27.9764 15.1588 28.073 15.1588 28.1694C15.1589 28.9089 15.7382 29.5034 16.4938 29.5034H21.8629C22.2649 29.5034 22.6515 29.3108 22.8766 29.0054C22.9408 28.9411 22.9724 28.8763 23.0045 28.812C23.0849 28.6674 23.1335 28.5391 23.1657 28.3784C23.1978 28.3141 23.1979 28.2332 23.1979 28.1528V28.105C23.1979 27.3654 22.6186 26.77 21.8629 26.77L16.4938 26.8188Z" fill="#FF6F94"/>
<path d="M59.4385 17.4785C59.4385 18.3949 59.3099 19.4722 59.0526 20.6137L59.4385 20.7101L61.6733 21.2246C61.9788 19.8741 62.1235 18.62 62.1235 17.4946H59.4385V17.4785ZM59.4385 23.4273L58.3452 23.0414C58.2648 23.2504 58.1844 23.4916 58.088 23.7006C57.6378 24.8743 57.0911 26.0158 56.4641 27.0769L58.088 28.0255L58.7793 28.4435C59.0044 28.0738 59.2295 27.6718 59.4224 27.2859C59.9691 26.2087 60.4514 25.0994 60.8533 23.9418L59.4224 23.4273H59.4385ZM33.9392 29.987V33.1222C34.5501 33.4759 35.1611 33.7974 35.772 34.1029L36.9618 31.7073C35.9328 31.1768 34.9199 30.6301 33.9231 30.0031L33.9392 29.987ZM55.0653 29.151C54.1328 30.3568 53.1039 31.3858 52.0106 32.1736L53.6023 34.3441C54.9046 33.3955 56.1104 32.1897 57.2198 30.7909L55.0814 29.151H55.0653ZM41.753 33.6527C40.9169 33.3633 40.097 33.0739 39.3252 32.7524L38.3123 35.2284C39.1484 35.5821 40.0166 35.9036 40.9008 36.193C41.6083 36.4181 42.3318 36.611 43.0392 36.7397L43.5376 34.1029C42.9427 33.9904 42.3639 33.8457 41.753 33.6527ZM49.9365 33.3955C48.6664 33.9743 47.2998 34.2798 45.9171 34.3119L45.9653 36.9969C47.7178 36.9487 49.422 36.5628 51.0459 35.8393L49.9365 33.3955Z" fill="#FF6F94"/>
</svg>
