<svg width="304" height="64" viewBox="0 0 304 64" fill="none" xmlns="http://www.w3.org/2000/svg">
<path d="M80.3332 37.6637V21.1266H91.3195V24.6257H84.1772V27.7654H90.3524V31.2645H84.1772V37.6637H80.3332Z" fill="black"/>
<path d="M97.5073 37.9513C94.7049 37.9513 92.8449 36.1298 92.8449 33.3496V25.4406H96.4657V32.2951C96.4657 33.6612 97.3585 34.572 98.7225 34.572C100.186 34.572 101.178 33.6372 101.178 32.2472V25.4406H104.798V33.3017C104.798 33.9248 105.17 34.2844 105.815 34.2844H106.063V37.6637H105.046C103.31 37.6637 102.145 37.1124 101.599 36.01C100.607 37.2802 99.2185 37.9513 97.5073 37.9513Z" fill="black"/>
<path d="M112.473 37.6637C109.571 37.6637 108.083 36.3695 108.083 33.8529V20.4076H111.704V33.086C111.704 33.8529 112.175 34.2844 112.993 34.2844H113.762V37.6637H112.473Z" fill="black"/>
<path d="M119.763 37.6637C116.861 37.6637 115.373 36.3695 115.373 33.8529V20.4076H118.994V33.086C118.994 33.8529 119.465 34.2844 120.283 34.2844H121.052V37.6637H119.763Z" fill="black"/>
<path d="M127.494 37.9513C124.27 37.9513 122.088 36.2257 122.088 33.9488H125.708C125.708 34.6678 126.452 35.1711 127.494 35.1711C128.412 35.1711 129.081 34.7637 129.081 34.2125C129.081 32.4149 122.286 33.5174 122.286 29.1075C122.286 26.5191 124.543 25.153 127.32 25.153C130.346 25.153 132.479 26.7827 132.479 28.9877H128.883C128.883 28.3406 128.213 27.9092 127.296 27.9092C126.477 27.9092 125.857 28.2687 125.857 28.8199C125.857 30.5455 132.677 29.491 132.677 33.8529C132.677 36.2976 130.569 37.9513 127.494 37.9513Z" fill="black"/>
<path d="M140.013 37.6637C137.359 37.6637 135.549 36.1058 135.549 33.781V28.6282H133.664V25.4406H134.706C135.4 25.4406 135.747 25.1051 135.747 24.434V22.229H139.17V25.4406H143.311V28.6282H139.17V33.4455C139.17 34.0686 139.616 34.4761 140.236 34.4761C140.931 34.4761 141.352 33.9967 141.352 33.2058H144.576C144.576 35.9141 142.791 37.6637 140.013 37.6637Z" fill="black"/>
<path d="M152.134 37.9513C148.24 37.9513 145.314 35.1951 145.314 31.5521C145.314 27.9092 148.24 25.153 152.134 25.153C156.028 25.153 158.954 27.9092 158.954 31.5521C158.954 35.1951 156.028 37.9513 152.134 37.9513ZM152.134 34.572C153.92 34.572 155.234 33.2777 155.234 31.5521C155.234 29.8265 153.92 28.5323 152.134 28.5323C150.348 28.5323 149.034 29.8265 149.034 31.5521C149.034 33.2777 150.348 34.572 152.134 34.572Z" fill="black"/>
<path d="M161.098 37.6637V25.4406H164.719V27.1422C165.686 25.9439 167 25.2489 168.538 25.2489H169.034V28.8439H168.538C166.083 28.8439 164.719 30.0662 164.719 31.9596V37.6637H161.098Z" fill="black"/>
<path d="M171.787 42.457V39.0537H172.159C173.623 39.0537 174.391 38.5504 175.036 37.4L170.002 25.4406H174.143L177.07 33.2058L179.971 25.4406H184.014L178.211 39.2215C177.219 41.5703 175.607 42.457 172.159 42.457H171.787Z" fill="black"/>
<path d="M189.471 37.6637L195.895 21.1266H200.433L206.881 37.6637H202.665L201.623 34.7637H194.655L193.588 37.6637H189.471ZM195.895 31.3364H200.359L198.127 25.2249L195.895 31.3364Z" fill="black"/>
<path d="M208.276 37.6637V25.4406H211.896V26.6389C212.888 25.6563 214.178 25.153 215.74 25.153C218.642 25.153 220.576 26.9984 220.576 29.8026V33.3017C220.576 33.9248 220.948 34.2844 221.593 34.2844H221.841V37.6637H220.824C218.27 37.6637 216.956 36.4414 216.956 34.0686V30.9769C216.956 29.491 215.988 28.5323 214.525 28.5323C212.963 28.5323 211.896 29.515 211.896 31.0249V37.6637H208.276Z" fill="black"/>
<path d="M228.988 37.9513C225.516 37.9513 222.887 35.1951 222.887 31.5521C222.887 27.9092 225.516 25.153 228.988 25.153C230.526 25.153 231.84 25.7042 232.807 26.6629V25.4406H236.428V33.3017C236.428 33.9248 236.8 34.2844 237.445 34.2844H237.693V37.6637H236.676C234.94 37.6637 233.799 37.1124 233.229 36.01C232.212 37.2083 230.749 37.9513 228.988 37.9513ZM229.707 34.572C231.493 34.572 232.807 33.2777 232.807 31.5521C232.807 29.8265 231.493 28.5323 229.707 28.5323C227.947 28.5323 226.632 29.8265 226.632 31.5521C226.632 33.2777 227.947 34.572 229.707 34.572Z" fill="black"/>
<path d="M244.101 37.6637C241.199 37.6637 239.711 36.3695 239.711 33.8529V20.4076H243.332V33.086C243.332 33.8529 243.803 34.2844 244.622 34.2844H245.391V37.6637H244.101Z" fill="black"/>
<path d="M247.156 42.457V39.0537H247.528C248.991 39.0537 249.76 38.5504 250.405 37.4L245.37 25.4406H249.512L252.438 33.2058L255.34 25.4406H259.382L253.579 39.2215C252.587 41.5703 250.975 42.457 247.528 42.457H247.156Z" fill="black"/>
<path d="M266.846 37.6637C264.192 37.6637 262.382 36.1058 262.382 33.781V28.6282H260.497V25.4406H261.539C262.233 25.4406 262.58 25.1051 262.58 24.434V22.229H266.003V25.4406H270.144V28.6282H266.003V33.4455C266.003 34.0686 266.449 34.4761 267.069 34.4761C267.764 34.4761 268.185 33.9967 268.185 33.2058H271.409C271.409 35.9141 269.624 37.6637 266.846 37.6637Z" fill="black"/>
<path d="M274.751 23.9307C273.486 23.9307 272.519 23.0199 272.519 21.7737C272.519 20.5514 273.486 19.6406 274.751 19.6406C276.041 19.6406 277.008 20.5514 277.008 21.7737C277.008 23.0199 276.041 23.9307 274.751 23.9307ZM272.941 37.6637V25.4406H276.561V37.6637H272.941Z" fill="black"/>
<path d="M285.554 37.9513C281.661 37.9513 278.735 35.1951 278.735 31.5521C278.735 27.9092 281.661 25.153 285.554 25.153C288.952 25.153 291.655 27.286 292.077 30.2579H288.233C287.886 29.2274 286.819 28.5323 285.554 28.5323C283.769 28.5323 282.454 29.8265 282.454 31.5521C282.454 33.2777 283.769 34.572 285.554 34.572C286.819 34.572 287.886 33.8769 288.233 32.8463H292.077C291.655 35.8182 288.952 37.9513 285.554 37.9513Z" fill="black"/>
<path d="M298.817 37.9513C295.593 37.9513 293.41 36.2257 293.41 33.9488H297.031C297.031 34.6678 297.775 35.1711 298.817 35.1711C299.734 35.1711 300.404 34.7637 300.404 34.2125C300.404 32.4149 293.609 33.5174 293.609 29.1075C293.609 26.5191 295.866 25.153 298.643 25.153C301.669 25.153 303.802 26.7827 303.802 28.9877H300.206C300.206 28.3406 299.536 27.9092 298.618 27.9092C297.8 27.9092 297.18 28.2687 297.18 28.8199C297.18 30.5455 304 29.491 304 33.8529C304 36.2976 301.892 37.9513 298.817 37.9513Z" fill="black"/>
<path d="M22.7203 25.7936C22.4818 25.7475 22.2434 25.7168 21.9891 25.7168H7.53931C7.28497 25.7168 7.03063 25.7475 6.79218 25.7936C5.50458 26.0701 4.50311 27.038 4.21698 28.2823H25.2955C25.0094 27.038 23.992 26.0701 22.7203 25.7936Z" fill="#269274"/>
<path d="M30.6844 46.2386V48.8041H45.2772V46.2386H30.6844ZM59.0911 9.04639H18.2058C15.5829 9.04639 13.421 11.1049 13.421 13.6704V19.3084H16.0756V13.6704C16.0756 12.549 17.0294 11.6119 18.2058 11.6119H59.0911C60.2515 11.6119 61.2053 12.5336 61.2053 13.6704V19.3084H63.86V13.6704C63.86 11.1203 61.7299 9.04639 59.0911 9.04639Z" fill="black"/>
<path d="M20.4004 14.1768C21.3224 14.1768 22.0536 14.8988 22.0536 15.7744C22.0536 16.6655 21.3065 17.3721 20.4004 17.3721C19.4784 17.3721 18.7472 16.6501 18.7472 15.7744C18.7472 14.8834 19.4943 14.1768 20.4004 14.1768Z" fill="black"/>
<path d="M25.7095 14.1768C26.6315 14.1768 27.3627 14.8988 27.3627 15.7744C27.3627 16.6655 26.6156 17.3721 25.7095 17.3721C24.7875 17.3721 24.0563 16.6501 24.0563 15.7744C24.0563 14.8834 24.8034 14.1768 25.7095 14.1768Z" fill="black"/>
<path d="M31.0186 14.1768C31.9406 14.1768 32.6718 14.8988 32.6718 15.7744C32.6718 16.6655 31.9247 17.3721 31.0186 17.3721C30.0966 17.3721 29.3654 16.6501 29.3654 15.7744C29.3654 14.8834 30.1125 14.1768 31.0186 14.1768Z" fill="black"/>
<path d="M63.4944 21.876C63.6215 21.876 63.7326 21.8766 63.8597 21.9072C66.0852 22.0762 67.8343 23.8738 67.8343 26.0859V51.0186C67.8343 52.1554 67.3727 53.1847 66.6097 53.9375C65.8149 54.7209 64.7183 55.2128 63.4944 55.2129H52.2874C51.0634 55.2129 49.9504 54.7363 49.1556 53.9375C48.3926 53.1848 47.9319 52.1553 47.9319 51.0186V26.0859C47.9319 23.7662 49.8871 21.876 52.2874 21.876H63.4944ZM52.2874 24.4385C51.3497 24.4385 50.5865 25.1759 50.5862 26.082V51C50.5862 51.9064 51.3654 52.6436 52.2874 52.6436V52.6592H63.4944C64.4163 52.659 65.179 51.9219 65.179 51.0156V26.082C65.1788 25.2987 64.6226 24.638 63.8597 24.4844C63.7327 24.4384 63.6214 24.4385 63.4944 24.4385H52.2874Z" fill="black"/>
<path d="M6.87155 24.4415C7.22127 22.9667 8.57246 21.876 10.1939 21.876H19.3343C20.9557 21.876 22.3069 22.9667 22.6407 24.4415H6.87155Z" fill="#9CDCCB"/>
<path d="M24.6438 29.5698C24.8981 29.5698 25.1369 29.5999 25.3752 29.646C26.8853 29.9686 28.0303 31.2745 28.0305 32.8413V51.937C28.0305 52.1827 27.9981 52.4284 27.9504 52.6587C27.6166 54.1335 26.2652 55.2251 24.6438 55.2251H4.88501C3.2636 55.2251 1.91246 54.1335 1.56274 52.6587C1.5151 52.4284 1.48364 52.1827 1.48364 51.937V32.8413C1.48384 31.2745 2.62792 29.9839 4.13794 29.646C4.37635 29.5999 4.63071 29.5698 4.88501 29.5698H24.6438ZM15.7102 42.7065L12.6731 39.4653L7.14185 45.3794L9.11255 47.1001L12.6731 43.2905L15.7102 46.5317L22.3704 39.4038L20.4153 37.6831L15.7102 42.7065Z" fill="#11AB85"/>
<path d="M61.2062 47.5298H54.5774C53.8462 47.5298 53.258 48.1136 53.258 48.8049C53.258 49.4962 53.8621 50.0799 54.5774 50.0799H61.2062C61.9533 50.0799 62.5256 49.4962 62.5256 48.8049C62.5256 48.4054 62.3348 48.0521 62.0328 47.8217C61.8102 47.622 61.5082 47.5298 61.1903 47.5298H61.2062Z" fill="black"/>
</svg>
