<svg width="294" height="64" viewBox="0 0 294 64" fill="none" xmlns="http://www.w3.org/2000/svg">
<path d="M77.4298 37.5619V21.0684H88.0191V24.5584H81.1349V27.6897H87.0869V31.1797H81.1349V37.5619H77.4298Z" fill="white"/>
<path d="M93.9832 37.8488C91.2821 37.8488 89.4894 36.0321 89.4894 33.2593V25.3711H92.9793V32.2075C92.9793 33.57 93.8398 34.4784 95.1545 34.4784C96.5648 34.4784 97.521 33.5461 97.521 32.1597V25.3711H101.011V33.2115C101.011 33.833 101.369 34.1915 101.991 34.1915H102.23V37.5619H101.25C99.5767 37.5619 98.4532 37.0122 97.9273 35.9126C96.9712 37.1795 95.6326 37.8488 93.9832 37.8488Z" fill="white"/>
<path d="M108.408 37.5619C105.611 37.5619 104.177 36.2711 104.177 33.7613V20.3513H107.667V32.9963C107.667 33.7613 108.121 34.1915 108.91 34.1915H109.651V37.5619H108.408Z" fill="white"/>
<path d="M115.434 37.5619C112.637 37.5619 111.203 36.2711 111.203 33.7613V20.3513H114.693V32.9963C114.693 33.7613 115.147 34.1915 115.936 34.1915H116.677V37.5619H115.434Z" fill="white"/>
<path d="M122.886 37.8488C119.779 37.8488 117.675 36.1277 117.675 33.8569H121.165C121.165 34.574 121.882 35.076 122.886 35.076C123.771 35.076 124.416 34.6696 124.416 34.1198C124.416 32.327 117.866 33.4266 117.866 29.0283C117.866 26.4468 120.042 25.0843 122.719 25.0843C125.635 25.0843 127.691 26.7097 127.691 28.9088H124.225C124.225 28.2634 123.579 27.8332 122.695 27.8332C121.906 27.8332 121.309 28.1917 121.309 28.7415C121.309 30.4626 127.882 29.4108 127.882 33.7613C127.882 36.1994 125.85 37.8488 122.886 37.8488Z" fill="white"/>
<path d="M134.953 37.5619C132.395 37.5619 130.65 36.0082 130.65 33.6896V28.5503H128.833V25.3711H129.837C130.507 25.3711 130.841 25.0364 130.841 24.3671V22.168H134.14V25.3711H138.132V28.5503H134.14V33.3549C134.14 33.9764 134.57 34.3828 135.168 34.3828C135.837 34.3828 136.244 33.9047 136.244 33.1159H139.351C139.351 35.817 137.63 37.5619 134.953 37.5619Z" fill="white"/>
<path d="M146.636 37.8488C142.883 37.8488 140.062 35.0999 140.062 31.4665C140.062 27.8332 142.883 25.0843 146.636 25.0843C150.388 25.0843 153.209 27.8332 153.209 31.4665C153.209 35.0999 150.388 37.8488 146.636 37.8488ZM146.636 34.4784C148.357 34.4784 149.624 33.1876 149.624 31.4665C149.624 29.7455 148.357 28.4547 146.636 28.4547C144.915 28.4547 143.648 29.7455 143.648 31.4665C143.648 33.1876 144.915 34.4784 146.636 34.4784Z" fill="white"/>
<path d="M155.275 37.5619V25.3711H158.765V27.0683C159.698 25.8731 160.965 25.1799 162.447 25.1799H162.925V28.7654H162.447C160.08 28.7654 158.765 29.9845 158.765 31.8729V37.5619H155.275Z" fill="white"/>
<path d="M165.579 42.3427V38.9483H165.937C167.348 38.9483 168.089 38.4464 168.71 37.299L163.858 25.3711H167.85L170.67 33.1159L173.467 25.3711H177.363L171.77 39.1157C170.814 41.4582 169.26 42.3427 165.937 42.3427H165.579Z" fill="white"/>
<path d="M182.624 37.5619L188.815 21.0684H193.189L199.404 37.5619H195.34L194.336 34.6696H187.619L186.592 37.5619H182.624ZM188.815 31.2514H193.117L190.966 25.156L188.815 31.2514Z" fill="white"/>
<path d="M200.748 37.5619V25.3711H204.238V26.5663C205.194 25.5862 206.437 25.0843 207.943 25.0843C210.74 25.0843 212.605 26.9248 212.605 29.7216V33.2115C212.605 33.833 212.963 34.1915 213.585 34.1915H213.824V37.5619H212.844C210.381 37.5619 209.115 36.3429 209.115 33.9764V30.8928C209.115 29.4108 208.182 28.4547 206.772 28.4547C205.266 28.4547 204.238 29.4347 204.238 30.9406V37.5619H200.748Z" fill="white"/>
<path d="M220.712 37.8488C217.366 37.8488 214.832 35.0999 214.832 31.4665C214.832 27.8332 217.366 25.0843 220.712 25.0843C222.194 25.0843 223.461 25.634 224.393 26.5902V25.3711H227.883V33.2115C227.883 33.833 228.242 34.1915 228.863 34.1915H229.102V37.5619H228.122C226.449 37.5619 225.35 37.0122 224.8 35.9126C223.82 37.1078 222.409 37.8488 220.712 37.8488ZM221.406 34.4784C223.127 34.4784 224.393 33.1876 224.393 31.4665C224.393 29.7455 223.127 28.4547 221.406 28.4547C219.708 28.4547 218.441 29.7455 218.441 31.4665C218.441 33.1876 219.708 34.4784 221.406 34.4784Z" fill="white"/>
<path d="M235.279 37.5619C232.482 37.5619 231.048 36.2711 231.048 33.7613V20.3513H234.538V32.9963C234.538 33.7613 234.992 34.1915 235.781 34.1915H236.522V37.5619H235.279Z" fill="white"/>
<path d="M238.223 42.3427V38.9483H238.582C239.992 38.9483 240.733 38.4464 241.355 37.299L236.502 25.3711H240.494L243.315 33.1159L246.112 25.3711H250.008L244.414 39.1157C243.458 41.4582 241.905 42.3427 238.582 42.3427H238.223Z" fill="white"/>
<path d="M257.202 37.5619C254.644 37.5619 252.899 36.0082 252.899 33.6896V28.5503H251.083V25.3711H252.087C252.756 25.3711 253.09 25.0364 253.09 24.3671V22.168H256.389V25.3711H260.381V28.5503H256.389V33.3549C256.389 33.9764 256.819 34.3828 257.417 34.3828C258.086 34.3828 258.493 33.9047 258.493 33.1159H261.6C261.6 35.817 259.879 37.5619 257.202 37.5619Z" fill="white"/>
<path d="M264.821 23.8652C263.602 23.8652 262.67 22.9568 262.67 21.7138C262.67 20.4948 263.602 19.5864 264.821 19.5864C266.064 19.5864 266.996 20.4948 266.996 21.7138C266.996 22.9568 266.064 23.8652 264.821 23.8652ZM263.076 37.5619V25.3711H266.566V37.5619H263.076Z" fill="white"/>
<path d="M275.234 37.8488C271.481 37.8488 268.661 35.0999 268.661 31.4665C268.661 27.8332 271.481 25.0843 275.234 25.0843C278.509 25.0843 281.115 27.2117 281.521 30.1757H277.816C277.481 29.1479 276.453 28.4547 275.234 28.4547C273.513 28.4547 272.246 29.7455 272.246 31.4665C272.246 33.1876 273.513 34.4784 275.234 34.4784C276.453 34.4784 277.481 33.7852 277.816 32.7573H281.521C281.115 35.7214 278.509 37.8488 275.234 37.8488Z" fill="white"/>
<path d="M288.017 37.8488C284.91 37.8488 282.806 36.1277 282.806 33.8569H286.296C286.296 34.574 287.013 35.076 288.017 35.076C288.902 35.076 289.547 34.6696 289.547 34.1198C289.547 32.327 282.997 33.4266 282.997 29.0283C282.997 26.4468 285.173 25.0843 287.85 25.0843C290.766 25.0843 292.822 26.7097 292.822 28.9088H289.356C289.356 28.2634 288.71 27.8332 287.826 27.8332C287.037 27.8332 286.44 28.1917 286.44 28.7415C286.44 30.4626 293.013 29.4108 293.013 33.7613C293.013 36.1994 290.981 37.8488 288.017 37.8488Z" fill="white"/>
<path d="M21.8992 25.7226C21.6693 25.6766 21.4395 25.646 21.1944 25.646H7.26683C7.02168 25.646 6.77654 25.6766 6.54671 25.7226C5.30564 25.9984 4.34037 26.9637 4.06458 28.2047H24.3813C24.1055 26.9637 23.1249 25.9984 21.8992 25.7226Z" fill="white"/>
<path d="M29.5754 46.1136V48.6724H43.6408V46.1136H29.5754ZM56.9555 9.01953H17.5478C15.0197 9.01953 12.9359 11.0727 12.9359 13.6314V19.2545H15.4947V13.6314C15.4947 12.5129 16.414 11.5783 17.5478 11.5783H56.9555C58.074 11.5783 58.9933 12.4976 58.9933 13.6314V19.2545H61.552V13.6314C61.552 11.088 59.4989 9.01953 56.9555 9.01953Z" fill="white"/>
<path d="M19.6632 14.1367C20.5518 14.1367 21.2566 14.8568 21.2566 15.7302C21.2566 16.6189 20.5365 17.3237 19.6632 17.3237C18.7745 17.3237 18.0697 16.6035 18.0697 15.7302C18.0697 14.8415 18.7898 14.1367 19.6632 14.1367Z" fill="white"/>
<path d="M24.7804 14.1367C25.669 14.1367 26.3738 14.8568 26.3738 15.7302C26.3738 16.6189 25.6537 17.3237 24.7804 17.3237C23.8917 17.3237 23.1869 16.6035 23.1869 15.7302C23.1869 14.8415 23.907 14.1367 24.7804 14.1367Z" fill="white"/>
<path d="M29.8977 14.1367C30.7863 14.1367 31.4911 14.8568 31.4911 15.7302C31.4911 16.6189 30.771 17.3237 29.8977 17.3237C29.009 17.3237 28.3042 16.6035 28.3042 15.7302C28.3042 14.8415 29.0243 14.1367 29.8977 14.1367Z" fill="white"/>
<path d="M61.1996 21.8154C61.3221 21.8154 61.4296 21.8151 61.5521 21.8457C63.6972 22.0142 65.3822 23.8073 65.3822 26.0137V50.8809C65.3822 52.0147 64.938 53.0412 64.2025 53.792C63.4364 54.5733 62.3793 55.0635 61.1996 55.0635H50.3978C49.218 55.0635 48.1454 54.5887 47.3793 53.792C46.6439 53.0412 46.1996 52.0146 46.1996 50.8809V26.0137C46.1996 23.7001 48.0842 21.8154 50.3978 21.8154H61.1996ZM50.3978 24.3711C49.4938 24.3711 48.7582 25.1068 48.7582 26.0107V50.8623C48.7582 51.7663 49.5092 52.502 50.3978 52.502V52.5176H61.1996C62.0882 52.5176 62.8235 51.7818 62.8236 50.8779V26.0107C62.8236 25.2294 62.2875 24.5703 61.5521 24.417C61.4296 24.371 61.3222 24.3711 61.1996 24.3711H50.3978Z" fill="white"/>
<path d="M6.62329 24.3742C6.96037 22.9033 8.26272 21.8154 9.82555 21.8154H18.6356C20.1984 21.8154 21.5008 22.9033 21.8225 24.3742H6.62329Z" fill="white"/>
<path d="M23.7539 29.4888C23.9988 29.4888 24.2284 29.519 24.458 29.5649C25.9136 29.8867 27.0176 31.1896 27.0176 32.7524V51.7974C27.0176 52.0424 26.9864 52.2874 26.9404 52.5171C26.6187 53.9879 25.3166 55.0765 23.7539 55.0767H4.70898C3.14616 55.0767 1.84294 53.988 1.50586 52.5171C1.45994 52.2874 1.42969 52.0423 1.42969 51.7974V32.7524C1.42969 31.1896 2.53273 29.902 3.98828 29.5649C4.21811 29.519 4.46384 29.4888 4.70898 29.4888H23.7539ZM15.1416 42.5913L12.2158 39.3579L6.88379 45.2573L8.7832 46.9731L12.2158 43.1733L15.1416 46.4058L21.5615 39.2964L19.6777 37.5806L15.1416 42.5913Z" fill="white"/>
<path d="M58.9942 47.4019H52.605C51.9002 47.4019 51.3333 47.9841 51.3333 48.6736C51.3333 49.363 51.9155 49.9453 52.605 49.9453H58.9942C59.7143 49.9453 60.2659 49.363 60.2659 48.6736C60.2659 48.2752 60.082 47.9228 59.7909 47.693C59.5764 47.4938 59.2853 47.4019 58.9788 47.4019H58.9942Z" fill="white"/>
</svg>
