<svg width="64" height="64" viewBox="0 0 64 64" fill="none" xmlns="http://www.w3.org/2000/svg">
<path fill-rule="evenodd" clip-rule="evenodd" d="M52.4019 35.4705C52.4019 37.3291 51.758 39.0414 50.675 40.3878C49.1968 36.3925 45.6113 33.407 41.2793 32.8069C39.6402 29.0896 35.9375 26.6017 31.7373 26.6017C30.6835 26.6017 29.6591 26.7627 28.6493 27.0554C27.4053 25.3431 25.7808 23.9966 23.9222 23.0893C24.8442 22.6063 25.8979 22.3429 27.0102 22.3429C28.2395 22.3429 29.3664 22.6649 30.3616 23.2356C31.8397 20.2501 34.9277 18.2158 38.484 18.2158C43.4892 18.2158 47.5577 22.2697 47.5577 27.2895C47.5577 27.5676 47.5577 27.8603 47.5138 28.1237C50.3823 29.3238 52.4019 32.163 52.4019 35.4559V35.4705Z" fill="#DCB2FF"/>
<path fill-rule="evenodd" clip-rule="evenodd" d="M62.6312 27.848C61.2556 27.5699 60.0555 27.1748 59.2798 26.5308C58.5042 25.8869 58.0066 25.0527 58.0066 23.3989V14.5594C58.0066 12.8178 57.1724 11.4421 56.0455 10.6519C55.0796 9.97864 53.9673 9.67131 52.9282 9.61277C52.8843 9.61277 52.8258 9.5835 52.7819 9.5835H14.7455C13.7211 9.65667 12.6234 9.96401 11.6575 10.6519C10.5453 11.4275 9.69644 12.8032 9.69644 14.5448V23.3989C9.69644 24.0136 9.62326 24.5258 9.49155 24.9502C10.2379 24.3209 11.0429 23.7648 11.9063 23.3111V14.5448C11.9063 13.4471 12.3015 12.8764 12.9161 12.4373C13.443 12.0714 14.1894 12.0422 14.8772 12.0422H52.7672C52.7672 12.0422 52.8404 12.0422 52.8843 12.0129C52.9282 12.0129 52.9868 12.0422 53.016 12.0422C53.7917 12.0422 54.1429 11.9983 54.7576 12.4373C55.3723 12.8764 55.7674 13.4325 55.7674 14.5448V23.3843C55.7674 25.5503 56.587 27.1894 57.8456 28.2285C58.2115 28.5358 58.6798 28.6968 59.0896 28.9163C58.6651 29.1212 58.2261 29.2968 57.8456 29.6042C56.6016 30.6286 55.7674 32.2824 55.7674 34.4484V43.2879C55.7674 44.4002 55.3723 44.9563 54.7576 45.3953C54.1429 45.8344 53.2356 46.0539 52.4599 46.0539C52.1672 46.0539 51.8745 46.171 51.6696 46.3759C51.4647 46.5808 51.333 46.8735 51.333 47.1662C51.333 47.4589 51.4501 47.7516 51.6696 47.9565C51.8745 48.1614 52.2258 48.5126 52.5185 48.5126C53.6746 48.5126 54.9332 47.9857 56.0308 47.1954C57.1431 46.4198 57.9919 45.0441 57.9919 43.2879V34.4484C57.9919 32.8092 58.4895 31.9604 59.2652 31.3165C60.0408 30.6725 61.2409 30.2774 62.6166 29.9993C63.1435 29.8969 63.5386 29.4432 63.5386 28.9163C63.5386 28.3895 63.1581 27.9212 62.6166 27.8333L62.6312 27.848Z" fill="black"/>
<path fill-rule="evenodd" clip-rule="evenodd" d="M15.6093 17.6197C16.4582 17.6197 17.1606 16.9319 17.1606 16.0684C17.1606 15.2049 16.4728 14.5171 15.6093 14.5171C14.7459 14.5171 14.058 15.2049 14.058 16.0684C14.058 16.9319 14.7459 17.6197 15.6093 17.6197Z" fill="black"/>
<path fill-rule="evenodd" clip-rule="evenodd" d="M20.5557 17.6197C21.4045 17.6197 22.107 16.9319 22.107 16.0684C22.107 15.2049 21.4191 14.5171 20.5557 14.5171C19.6922 14.5171 19.0044 15.2049 19.0044 16.0684C19.0044 16.9319 19.6922 17.6197 20.5557 17.6197Z" fill="black"/>
<path fill-rule="evenodd" clip-rule="evenodd" d="M25.5023 17.6197C26.3511 17.6197 27.0536 16.9319 27.0536 16.0684C27.0536 15.2049 26.3657 14.5171 25.5023 14.5171C24.6388 14.5171 23.951 15.2049 23.951 16.0684C23.951 16.9319 24.6388 17.6197 25.5023 17.6197Z" fill="black"/>
<path fill-rule="evenodd" clip-rule="evenodd" d="M48.5822 48.5572C47.0601 51.8355 43.7526 54.1039 39.9036 54.1039H26.7028C23.3514 54.1039 21.4781 54.1039 20.2342 54.1039H16.5169C15.9022 54.1039 16.2388 54.1039 15.2875 54.1039C14.0582 54.1039 12.741 54.1039 10.1067 54.1039H9.97502C8.37981 54.1039 6.88704 53.7088 5.56989 53.0209C6.55043 52.7867 7.47244 52.2892 8.35054 51.7184C8.64324 51.5281 8.93594 51.3086 9.22864 51.0891C9.57988 50.8257 9.93112 50.5476 10.2824 50.2549C10.6775 49.9329 11.058 49.5963 11.4532 49.2597C14.0728 46.9913 16.8242 44.3716 20.0732 42.6008C20.6293 42.2788 21.2147 42.0007 21.8001 41.752L22.5026 43.6252L23.4392 46.1425C23.9807 47.5913 25.371 48.5572 26.9224 48.5572H48.5968H48.5822Z" fill="#932FEE"/>
<path fill-rule="evenodd" clip-rule="evenodd" d="M49.4607 44.5752C49.4607 43.6532 49.329 42.7605 49.0802 41.9117C47.924 37.9602 44.2653 35.0625 39.9187 35.0625H39.8016C38.9235 31.4915 35.7038 28.8426 31.8694 28.8426C30.3474 28.8426 28.9424 29.2524 27.7423 29.9695C26.5423 27.5547 24.4787 25.6375 21.9469 24.6424C20.7175 24.1594 19.3711 23.8813 17.9662 23.8813C15.4929 23.8813 13.2391 24.7009 11.4243 26.062C10.8096 26.5156 10.2828 27.0132 9.79983 27.584C9.72666 27.6572 9.66812 27.745 9.59494 27.8182C9.33152 28.1401 9.11199 28.4621 8.89246 28.7987C8.84856 28.8572 8.80466 28.9158 8.77538 28.989C8.73148 29.0329 8.70221 29.106 8.65831 29.1792C7.66313 30.8037 7.10699 32.7209 7.10699 34.7698C7.10699 35.0332 7.10699 35.2527 7.13626 35.5015C3.28726 36.7162 0.491974 40.3311 0.491974 44.5752C0.491974 46.0241 0.813944 47.4144 1.39934 48.6291C2.01401 49.478 2.55551 50.0195 3.06773 50.3268C3.65313 50.678 4.20926 50.7658 4.79466 50.6634C5.42397 50.5463 6.17035 50.2244 7.04845 49.639C7.60458 49.2584 8.18998 48.8048 8.81929 48.2925C8.84856 48.2633 8.86319 48.2486 8.89246 48.2194C9.00954 48.1023 9.12663 48.0145 9.22907 47.912C9.66812 47.5022 10.0047 46.9607 10.1657 46.3314L13.9708 32.677C14.3952 31.0964 15.7416 30.0427 17.3808 29.9695C19.0345 29.911 20.4541 30.8476 21.0249 32.3843L23.3518 38.6188C24.5226 38.2822 25.752 38.0773 27.0545 38.0334C27.7423 38.0041 28.3131 38.531 28.3424 39.2188C28.3717 39.9067 27.8448 40.4774 27.1569 40.5067C26.1325 40.5506 25.1373 40.697 24.2007 40.9458L25.8105 45.2777C25.9861 45.7607 26.4398 46.0826 26.9667 46.0826H49.3582C49.4607 45.5412 49.4607 45.146 49.4607 44.5752ZM31.006 42.6288C30.7718 42.8776 30.4498 42.9947 30.1425 42.9947C29.8352 42.9947 29.5132 42.8776 29.2644 42.6288C28.7814 42.1458 28.7814 41.3702 29.2644 40.8872L30.8596 39.292L29.2644 37.6968C28.7814 37.2138 28.7814 36.4382 29.2644 35.9552C29.7473 35.4723 30.5376 35.4723 31.006 35.9552L34.3574 39.3066L31.006 42.6581V42.6288Z" fill="#932FEE"/>
<path d="M20.9363 39.4253C20.3509 39.6887 19.7655 39.9668 19.1947 40.2595C16.9556 41.4303 14.9799 42.9523 13.209 44.4451L16.2824 33.381C16.5019 32.5761 17.2044 32.4736 17.4239 32.4736C17.6434 32.4736 18.3459 32.5029 18.6386 33.2786L20.1606 37.391L20.9363 39.4399V39.4253Z" fill="#932FEE"/>
</svg>
