<svg width="63" height="63" viewBox="0 0 63 63" fill="none" xmlns="http://www.w3.org/2000/svg">
<path d="M20.6488 25.1967C20.4321 25.1534 20.2154 25.1245 19.9842 25.1245H6.85193C6.62078 25.1245 6.38963 25.1534 6.17293 25.1967C5.00272 25.4568 4.09256 26.367 3.83252 27.5372H22.9892C22.7291 26.367 21.8045 25.4568 20.6488 25.1967Z" fill="#269274"/>
<path d="M27.8867 44.4234V46.836H41.149V44.4234H27.8867ZM53.7034 9.44727H16.5459C14.1621 9.44727 12.1973 11.3832 12.1973 13.7958V19.0978H14.61V13.7958C14.61 12.7412 15.4768 11.8599 16.5459 11.8599H53.7034C54.7581 11.8599 55.6249 12.7267 55.6249 13.7958V19.0978H58.0375V13.7958C58.0375 11.3976 56.1016 9.44727 53.7034 9.44727Z" fill="black"/>
<path d="M18.5404 14.2725C19.3783 14.2725 20.0429 14.9515 20.0429 15.7749C20.0429 16.6129 19.3639 17.2774 18.5404 17.2774C17.7025 17.2774 17.0379 16.5984 17.0379 15.7749C17.0379 14.937 17.7169 14.2725 18.5404 14.2725Z" fill="black"/>
<path d="M23.3655 14.2725C24.2034 14.2725 24.8679 14.9515 24.8679 15.7749C24.8679 16.6129 24.1889 17.2774 23.3655 17.2774C22.5275 17.2774 21.863 16.5984 21.863 15.7749C21.863 14.937 22.542 14.2725 23.3655 14.2725Z" fill="black"/>
<path d="M28.1905 14.2725C29.0284 14.2725 29.693 14.9515 29.693 15.7749C29.693 16.6129 29.014 17.2774 28.1905 17.2774C27.3526 17.2774 26.688 16.5984 26.688 15.7749C26.688 14.937 27.367 14.2725 28.1905 14.2725Z" fill="black"/>
<path d="M57.7052 21.5127C57.8207 21.5127 57.9217 21.5131 58.0372 21.542C60.0597 21.7009 61.6493 23.3906 61.6495 25.4707V48.9189C61.6494 49.9877 61.2304 50.9553 60.5372 51.6631C59.8149 52.3999 58.8176 52.8623 57.7052 52.8623H47.5197C46.4074 52.8622 45.3962 52.4142 44.674 51.6631C43.9807 50.9553 43.5617 49.9877 43.5616 48.9189V25.4707C43.5619 23.2896 45.3385 21.5129 47.5197 21.5127H57.7052ZM47.5197 23.9229C46.6676 23.9231 45.974 24.6157 45.9738 25.4678V48.9014C45.9739 49.7535 46.682 50.4471 47.5197 50.4473V50.4619H57.7052C58.543 50.4619 59.2362 49.7682 59.2365 48.916V25.4678C59.2362 24.7312 58.7305 24.1103 58.0372 23.9658C57.9217 23.9225 57.8207 23.9229 57.7052 23.9229H47.5197Z" fill="black"/>
<path d="M6.24509 23.9253C6.56292 22.5384 7.79091 21.5127 9.2645 21.5127H17.5715C19.0451 21.5127 20.2731 22.5384 20.5765 23.9253H6.24509Z" fill="#9CDCCB"/>
<path d="M22.3969 28.7476C22.628 28.7476 22.8452 28.7765 23.0619 28.8198C24.4343 29.1232 25.474 30.3512 25.474 31.8247V49.7827C25.474 50.0137 25.4451 50.2448 25.4017 50.4614C25.0983 51.8482 23.8704 52.8735 22.3969 52.8735H4.43982C2.96626 52.8735 1.73815 51.8483 1.42029 50.4614C1.37697 50.2448 1.34805 50.0137 1.34802 49.7827V31.8247C1.34805 30.3511 2.38866 29.1377 3.76111 28.8198C3.97769 28.7765 4.20882 28.7476 4.43982 28.7476H22.3969ZM14.2777 41.1021L11.5179 38.0532L6.4906 43.6157L8.28162 45.2339L11.5179 41.6509L14.2777 44.6987L20.3304 37.9956L18.5541 36.3774L14.2777 41.1021Z" fill="#11AB85"/>
<path d="M55.6257 45.6377H49.6013C48.9368 45.6377 48.4022 46.1867 48.4022 46.8368C48.4022 47.4869 48.9512 48.0359 49.6013 48.0359H55.6257C56.3047 48.0359 56.8248 47.4869 56.8248 46.8368C56.8248 46.4612 56.6514 46.1289 56.3769 45.9122C56.1747 45.7244 55.9002 45.6377 55.6113 45.6377H55.6257Z" fill="black"/>
</svg>
