<svg width="296" height="64" viewBox="0 0 296 64" fill="none" xmlns="http://www.w3.org/2000/svg">
<path d="M74.9502 36.7319V20.4459H85.4609V23.8919H78.6278V26.9839H84.5356V30.4299H78.6278V36.7319H74.9502Z" fill="white"/>
<path d="M91.3808 37.0152C88.6997 37.0152 86.9203 35.2213 86.9203 32.4834V24.6944H90.3843V31.4449C90.3843 32.7902 91.2384 33.6871 92.5434 33.6871C93.9432 33.6871 94.8923 32.7666 94.8923 31.3977V24.6944H98.3563V32.4362C98.3563 33.0499 98.7122 33.4039 99.3291 33.4039H99.5663V36.7319H98.5936C96.9327 36.7319 95.8176 36.189 95.2956 35.1033C94.3466 36.3543 93.0179 37.0152 91.3808 37.0152Z" fill="white"/>
<path d="M105.698 36.7319C102.922 36.7319 101.499 35.4574 101.499 32.979V19.7378H104.963V32.2238C104.963 32.979 105.414 33.4039 106.197 33.4039H106.932V36.7319H105.698Z" fill="white"/>
<path d="M112.672 36.7319C109.897 36.7319 108.473 35.4574 108.473 32.979V19.7378H111.937V32.2238C111.937 32.979 112.388 33.4039 113.171 33.4039H113.906V36.7319H112.672Z" fill="white"/>
<path d="M120.069 37.0152C116.985 37.0152 114.897 35.3157 114.897 33.0735H118.361C118.361 33.7815 119.073 34.2772 120.069 34.2772C120.947 34.2772 121.588 33.876 121.588 33.3331C121.588 31.5629 115.087 32.6486 115.087 28.3057C115.087 25.7565 117.246 24.4112 119.903 24.4112C122.798 24.4112 124.838 26.0162 124.838 28.1876H121.398C121.398 27.5504 120.757 27.1255 119.88 27.1255C119.097 27.1255 118.503 27.4796 118.503 28.0224C118.503 29.7218 125.028 28.6833 125.028 32.979C125.028 35.3865 123.011 37.0152 120.069 37.0152Z" fill="white"/>
<path d="M132.046 36.7319C129.508 36.7319 127.776 35.1977 127.776 32.9082V27.8336H125.972V24.6944H126.969C127.633 24.6944 127.965 24.364 127.965 23.7031V21.5316H131.24V24.6944H135.202V27.8336H131.24V32.5778C131.24 33.1915 131.667 33.5927 132.26 33.5927C132.924 33.5927 133.327 33.1207 133.327 32.3418H136.412C136.412 35.0089 134.704 36.7319 132.046 36.7319Z" fill="white"/>
<path d="M143.642 37.0152C139.917 37.0152 137.118 34.3008 137.118 30.7132C137.118 27.1255 139.917 24.4112 143.642 24.4112C147.367 24.4112 150.167 27.1255 150.167 30.7132C150.167 34.3008 147.367 37.0152 143.642 37.0152ZM143.642 33.6871C145.351 33.6871 146.608 32.4126 146.608 30.7132C146.608 29.0138 145.351 27.7392 143.642 27.7392C141.934 27.7392 140.677 29.0138 140.677 30.7132C140.677 32.4126 141.934 33.6871 143.642 33.6871Z" fill="white"/>
<path d="M152.218 36.7319V24.6944H155.682V26.3702C156.608 25.1901 157.865 24.5056 159.336 24.5056H159.811V28.046H159.336C156.987 28.046 155.682 29.2498 155.682 31.1144V36.7319H152.218Z" fill="white"/>
<path d="M162.445 41.4525V38.1009H162.801C164.201 38.1009 164.936 37.6052 165.553 36.4723L160.737 24.6944H164.699L167.499 32.3418L170.275 24.6944H174.142L168.59 38.2661C167.641 40.5792 166.099 41.4525 162.801 41.4525H162.445Z" fill="white"/>
<path d="M179.363 36.7319L185.508 20.4459H189.85L196.019 36.7319H191.986L190.989 33.876H184.322L183.302 36.7319H179.363ZM185.508 30.5007H189.779L187.644 24.482L185.508 30.5007Z" fill="white"/>
<path d="M197.354 36.7319V24.6944H200.818V25.8746C201.767 24.9068 203 24.4112 204.495 24.4112C207.271 24.4112 209.122 26.2286 209.122 28.9901V32.4362C209.122 33.0499 209.478 33.4039 210.095 33.4039H210.332V36.7319H209.359C206.915 36.7319 205.658 35.5282 205.658 33.1915V30.1467C205.658 28.6833 204.732 27.7392 203.333 27.7392C201.838 27.7392 200.818 28.7069 200.818 30.1939V36.7319H197.354Z" fill="white"/>
<path d="M211.705 41.4525V38.1009H212.061C213.461 38.1009 214.196 37.6052 214.813 36.4723L209.997 24.6944H213.959L216.758 32.3418L219.534 24.6944H223.402L217.85 38.2661C216.901 40.5792 215.359 41.4525 212.061 41.4525H211.705Z" fill="white"/>
<path d="M228.17 36.7319L223.923 24.6944H227.862L230.045 32.2474L232.346 24.6944H235.881L238.159 32.2474L240.342 24.6944H244.186L239.939 36.7319H236.38L234.055 28.8957L231.729 36.7319H228.17Z" fill="white"/>
<path d="M245.734 36.7319V19.7378H249.198V25.969C250.147 24.954 251.381 24.4112 252.876 24.4112C255.652 24.4112 257.502 26.2286 257.502 28.9901V32.4362C257.502 33.0499 257.858 33.4039 258.475 33.4039H258.712V36.7319H257.739C255.296 36.7319 254.038 35.5282 254.038 33.1915V30.1467C254.038 28.6833 253.113 27.7392 251.713 27.7392C250.218 27.7392 249.198 28.7069 249.198 30.1939V36.7319H245.734Z" fill="white"/>
<path d="M266.213 37.0152C262.464 37.0152 259.665 34.3008 259.665 30.7132C259.665 27.1255 262.464 24.4112 266.189 24.4112C269.891 24.4112 272.714 27.1019 272.714 30.784C272.714 31.1144 272.69 31.5157 272.619 31.8225H263.366C263.745 33.1915 264.861 34.0648 266.308 34.0648C267.423 34.0648 268.325 33.5927 268.823 32.9318H272.524C271.623 35.3629 269.203 37.0152 266.213 37.0152ZM266.189 27.3615C264.813 27.3615 263.769 28.2113 263.39 29.533H269.013C268.657 28.2113 267.565 27.3615 266.189 27.3615Z" fill="white"/>
<path d="M274.696 36.7319V24.6944H278.16V26.3702C279.085 25.1901 280.342 24.5056 281.813 24.5056H282.288V28.046H281.813C279.464 28.046 278.16 29.2498 278.16 31.1144V36.7319H274.696Z" fill="white"/>
<path d="M289.499 37.0152C285.75 37.0152 282.951 34.3008 282.951 30.7132C282.951 27.1255 285.75 24.4112 289.475 24.4112C293.177 24.4112 296 27.1019 296 30.784C296 31.1144 295.976 31.5157 295.905 31.8225H286.652C287.031 33.1915 288.147 34.0648 289.594 34.0648C290.709 34.0648 291.611 33.5927 292.109 32.9318H295.81C294.909 35.3629 292.488 37.0152 289.499 37.0152ZM289.475 27.3615C288.099 27.3615 287.055 28.2113 286.676 29.533H292.299C291.943 28.2113 290.851 27.3615 289.475 27.3615Z" fill="white"/>
<path fill-rule="evenodd" clip-rule="evenodd" d="M54.315 34.6903C54.315 36.6168 53.6476 38.3916 52.525 39.7872C50.9929 35.646 47.2765 32.5514 42.7863 31.9295C41.0874 28.0765 37.2495 25.4977 32.8959 25.4977C31.8038 25.4977 30.7419 25.6645 29.6952 25.9679C28.4058 24.1931 26.722 22.7975 24.7955 21.857C25.7512 21.3565 26.8434 21.0834 27.9963 21.0834C29.2705 21.0834 30.4385 21.4171 31.47 22.0087C33.0021 18.9142 36.2029 16.8057 39.889 16.8057C45.0769 16.8057 49.294 21.0076 49.294 26.2106C49.294 26.4989 49.294 26.8022 49.2485 27.0753C52.2217 28.3192 54.315 31.262 54.315 34.6751V34.6903Z" fill="white"/>
<path fill-rule="evenodd" clip-rule="evenodd" d="M64.9178 26.7892C63.4919 26.501 62.248 26.0914 61.444 25.424C60.64 24.7565 60.1243 23.8919 60.1243 22.1777V13.0155C60.1243 11.2103 59.2596 9.78441 58.0916 8.96527C57.0904 8.26748 55.9376 7.94893 54.8605 7.88825C54.815 7.88825 54.7544 7.85791 54.7088 7.85791H15.2838C14.2219 7.93376 13.0842 8.25231 12.0831 8.96527C10.9302 9.76924 10.0504 11.1952 10.0504 13.0003V22.1777C10.0504 22.8149 9.97454 23.3458 9.83801 23.7857C10.6116 23.1334 11.446 22.557 12.3409 22.0867V13.0003C12.3409 11.8626 12.7505 11.271 13.3876 10.8159C13.9337 10.4367 14.7074 10.4064 15.4203 10.4064H54.6937C54.6937 10.4064 54.7695 10.4064 54.815 10.376C54.8605 10.376 54.9212 10.4064 54.9516 10.4064C55.7555 10.4064 56.1196 10.3608 56.7567 10.8159C57.3938 11.271 57.8034 11.8474 57.8034 13.0003V22.1626C57.8034 24.4076 58.6529 26.1066 59.9574 27.1836C60.3367 27.5022 60.8221 27.669 61.2468 27.8966C60.8069 28.1089 60.3518 28.291 59.9574 28.6095C58.668 29.6714 57.8034 31.3855 57.8034 33.6306V42.7928C57.8034 43.9457 57.3938 44.5221 56.7567 44.9772C56.1196 45.4323 55.1791 45.6598 54.3751 45.6598C54.0717 45.6598 53.7683 45.7812 53.556 45.9936C53.3436 46.2059 53.2071 46.5093 53.2071 46.8127C53.2071 47.1161 53.3284 47.4195 53.556 47.6319C53.7683 47.8442 54.1324 48.2083 54.4358 48.2083C55.6342 48.2083 56.9387 47.6622 58.0764 46.8431C59.2293 46.0391 60.1091 44.6132 60.1091 42.7928V33.6306C60.1091 31.9316 60.6249 31.0518 61.4289 30.3843C62.2328 29.7169 63.4767 29.3073 64.9026 29.0191C65.4487 28.9129 65.8583 28.4427 65.8583 27.8966C65.8583 27.3505 65.4639 26.8651 64.9026 26.774L64.9178 26.7892Z" fill="white"/>
<path fill-rule="evenodd" clip-rule="evenodd" d="M16.1791 16.1876C17.0589 16.1876 17.7871 15.4746 17.7871 14.5796C17.7871 13.6846 17.0741 12.9717 16.1791 12.9717C15.2841 12.9717 14.5712 13.6846 14.5712 14.5796C14.5712 15.4746 15.2841 16.1876 16.1791 16.1876Z" fill="white"/>
<path fill-rule="evenodd" clip-rule="evenodd" d="M21.3061 16.1876C22.1859 16.1876 22.914 15.4746 22.914 14.5796C22.914 13.6846 22.2011 12.9717 21.3061 12.9717C20.4111 12.9717 19.6981 13.6846 19.6981 14.5796C19.6981 15.4746 20.4111 16.1876 21.3061 16.1876Z" fill="white"/>
<path fill-rule="evenodd" clip-rule="evenodd" d="M26.4333 16.1876C27.3131 16.1876 28.0412 15.4746 28.0412 14.5796C28.0412 13.6846 27.3283 12.9717 26.4333 12.9717C25.5383 12.9717 24.8253 13.6846 24.8253 14.5796C24.8253 15.4746 25.5383 16.1876 26.4333 16.1876Z" fill="white"/>
<path fill-rule="evenodd" clip-rule="evenodd" d="M50.3558 48.2544C48.7782 51.6523 45.3499 54.0036 41.3604 54.0036H27.6777C24.2039 54.0036 22.2622 54.0036 20.9728 54.0036H17.1198C16.4827 54.0036 16.8316 54.0036 15.8456 54.0036C14.5714 54.0036 13.2062 54.0036 10.4757 54.0036H10.3392C8.6857 54.0036 7.13843 53.594 5.77319 52.8811C6.78954 52.6384 7.7452 52.1226 8.65536 51.531C8.95875 51.3338 9.26214 51.1062 9.56552 50.8787C9.92959 50.6057 10.2936 50.3174 10.6577 50.0141C11.0673 49.6803 11.4617 49.3314 11.8713 48.9825C14.5866 46.6313 17.4384 43.916 20.806 42.0805C21.3824 41.7468 21.9892 41.4586 22.596 41.2007L23.3241 43.1424L24.2949 45.7515C24.8562 47.2532 26.2973 48.2544 27.9052 48.2544H50.371H50.3558Z" fill="white"/>
<path fill-rule="evenodd" clip-rule="evenodd" d="M51.2664 44.1271C51.2664 43.1715 51.1299 42.2462 50.872 41.3663C49.6736 37.2706 45.8813 34.2671 41.376 34.2671H41.2547C40.3445 30.5658 37.0073 27.8201 33.0329 27.8201C31.4553 27.8201 29.999 28.2449 28.7552 28.9882C27.5113 26.4852 25.3724 24.4981 22.7481 23.4665C21.4739 22.966 20.0783 22.6777 18.6221 22.6777C16.0584 22.6777 13.7224 23.5272 11.8414 24.938C11.2043 25.4082 10.6582 25.924 10.1576 26.5156C10.0817 26.5914 10.021 26.6824 9.9452 26.7583C9.67216 27.092 9.44462 27.4257 9.21708 27.7746C9.17157 27.8353 9.12606 27.896 9.09572 27.9718C9.05021 28.0173 9.01987 28.0932 8.97437 28.169C7.94285 29.8528 7.36642 31.84 7.36642 33.9637C7.36642 34.2368 7.36642 34.4643 7.39676 34.7222C3.40723 35.9812 0.509888 39.728 0.509888 44.1271C0.509888 45.6289 0.843613 47.07 1.45039 48.3291C2.0875 49.2089 2.64876 49.7701 3.17969 50.0887C3.78646 50.4528 4.36289 50.5438 4.96967 50.4376C5.62195 50.3162 6.39558 49.9825 7.30574 49.3757C7.88218 48.9813 8.48895 48.5111 9.14123 47.9802C9.17157 47.9498 9.18674 47.9346 9.21708 47.9043C9.33843 47.783 9.45978 47.6919 9.56597 47.5858C10.021 47.161 10.3699 46.5997 10.5368 45.9475L14.4808 31.7945C14.9207 30.1562 16.3163 29.064 18.0153 28.9882C19.7294 28.9275 21.2008 29.8983 21.7924 31.4911L24.2044 37.9532C25.4179 37.6043 26.6921 37.392 28.0422 37.3465C28.7552 37.3161 29.3468 37.8622 29.3771 38.5752C29.4074 39.2881 28.8613 39.8797 28.1484 39.9101C27.0865 39.9556 26.055 40.1073 25.0842 40.3652L26.7528 44.8553C26.9348 45.3559 27.4051 45.6896 27.9512 45.6896H51.1602C51.2664 45.1283 51.2664 44.7188 51.2664 44.1271ZM32.1379 42.1096C31.8952 42.3675 31.5615 42.4889 31.2429 42.4889C30.9244 42.4889 30.5906 42.3675 30.3328 42.1096C29.8322 41.609 29.8322 40.8051 30.3328 40.3045L31.9862 38.651L30.3328 36.9976C29.8322 36.497 29.8322 35.693 30.3328 35.1924C30.8334 34.6918 31.6525 34.6918 32.1379 35.1924L35.6117 38.6662L32.1379 42.14V42.1096Z" fill="white"/>
<path d="M21.7006 38.7894C21.0938 39.0625 20.487 39.3507 19.8954 39.6541C17.5745 40.8676 15.5266 42.4452 13.6912 43.9925L16.8767 32.5245C17.1043 31.6902 17.8324 31.584 18.0599 31.584C18.2875 31.584 19.0156 31.6143 19.319 32.4183L20.8966 36.6809L21.7006 38.8046V38.7894Z" fill="white"/>
</svg>
