<svg width="304" height="64" viewBox="0 0 304 64" fill="none" xmlns="http://www.w3.org/2000/svg">
<path d="M72.9349 37.655V21.1216H83.6654V24.62H76.6894V27.7589H82.7208V31.2573H76.6894V37.655H72.9349Z" fill="#FF6F94"/>
<path d="M89.7091 37.9425C86.972 37.9425 85.1553 36.1215 85.1553 33.342V25.4347H88.6917V32.2876C88.6917 33.6534 89.5637 34.564 90.896 34.564C92.3251 34.564 93.294 33.6295 93.294 32.2397V25.4347H96.8304V33.294C96.8304 33.917 97.1938 34.2764 97.8236 34.2764H98.0658V37.655H97.0727C95.3771 37.655 94.2387 37.1039 93.7058 36.0017C92.7369 37.2716 91.3804 37.9425 89.7091 37.9425Z" fill="#FF6F94"/>
<path d="M104.326 37.655C101.492 37.655 100.039 36.3611 100.039 33.8451V20.4028H103.575V33.0784C103.575 33.8451 104.035 34.2764 104.835 34.2764H105.585V37.655H104.326Z" fill="#FF6F94"/>
<path d="M111.446 37.655C108.612 37.655 107.159 36.3611 107.159 33.8451V20.4028H110.695V33.0784C110.695 33.8451 111.155 34.2764 111.955 34.2764H112.706V37.655H111.446Z" fill="#FF6F94"/>
<path d="M118.997 37.9425C115.849 37.9425 113.717 36.2173 113.717 33.941H117.253C117.253 34.6598 117.98 35.163 118.997 35.163C119.894 35.163 120.548 34.7557 120.548 34.2046C120.548 32.4075 113.911 33.5097 113.911 29.1008C113.911 26.5129 116.115 25.1471 118.828 25.1471C121.783 25.1471 123.866 26.7765 123.866 28.981H120.354C120.354 28.334 119.7 27.9027 118.804 27.9027C118.004 27.9027 117.399 28.2621 117.399 28.8132C117.399 30.5385 124.06 29.4842 124.06 33.8451C124.06 36.2892 122.001 37.9425 118.997 37.9425Z" fill="#FF6F94"/>
<path d="M131.225 37.655C128.633 37.655 126.865 36.0975 126.865 33.7733V28.6215H125.024V25.4347H126.041C126.719 25.4347 127.059 25.0992 127.059 24.4283V22.2238H130.401V25.4347H134.446V28.6215H130.401V33.4378C130.401 34.0608 130.837 34.4681 131.443 34.4681C132.121 34.4681 132.533 33.9889 132.533 33.1982H135.682C135.682 35.9058 133.938 37.655 131.225 37.655Z" fill="#FF6F94"/>
<path d="M143.063 37.9425C139.261 37.9425 136.402 35.187 136.402 31.5448C136.402 27.9027 139.261 25.1471 143.063 25.1471C146.866 25.1471 149.725 27.9027 149.725 31.5448C149.725 35.187 146.866 37.9425 143.063 37.9425ZM143.063 34.564C144.807 34.564 146.091 33.2701 146.091 31.5448C146.091 29.8196 144.807 28.5257 143.063 28.5257C141.319 28.5257 140.036 29.8196 140.036 31.5448C140.036 33.2701 141.319 34.564 143.063 34.564Z" fill="#FF6F94"/>
<path d="M151.819 37.655V25.4347H155.355V27.1359C156.3 25.9379 157.583 25.243 159.085 25.243H159.57V28.8372H159.085C156.687 28.8372 155.355 30.0592 155.355 31.9522V37.655H151.819Z" fill="#FF6F94"/>
<path d="M162.259 42.4473V39.0448H162.623C164.052 39.0448 164.803 38.5416 165.432 37.3914L160.515 25.4347H164.56L167.419 33.1982L170.253 25.4347H174.201L168.533 39.2125C167.564 41.5607 165.99 42.4473 162.623 42.4473H162.259Z" fill="#FF6F94"/>
<path d="M185.466 37.655L179.798 21.1216H183.94L187.404 32.5033L190.867 21.1216H194.258L197.771 32.5033L201.186 21.1216H205.231L199.587 37.655H195.833L192.514 26.8724L189.244 37.655H185.466Z" fill="#FF6F94"/>
<path d="M211.473 37.9425C207.67 37.9425 204.811 35.187 204.811 31.5448C204.811 27.9027 207.67 25.1471 211.473 25.1471C215.275 25.1471 218.134 27.9027 218.134 31.5448C218.134 35.187 215.275 37.9425 211.473 37.9425ZM211.473 34.564C213.217 34.564 214.5 33.2701 214.5 31.5448C214.5 29.8196 213.217 28.5257 211.473 28.5257C209.729 28.5257 208.445 29.8196 208.445 31.5448C208.445 33.2701 209.729 34.564 211.473 34.564Z" fill="#FF6F94"/>
<path d="M220.228 37.655V25.4347H223.764V27.1359C224.709 25.9379 225.993 25.243 227.494 25.243H227.979V28.8372H227.494C225.096 28.8372 223.764 30.0592 223.764 31.9522V37.655H220.228Z" fill="#FF6F94"/>
<path d="M229.691 37.655V20.4028H233.227V30.1072L237.49 25.4347H241.971L236.86 30.85L242.141 37.655H237.611L234.414 33.4378L233.227 34.6838V37.655H229.691Z" fill="#FF6F94"/>
<path d="M244.598 37.655V28.8132H242.733V25.6264H244.598V24.0449C244.598 21.6967 246.39 20.1152 249.03 20.1152C251.743 20.1152 253.487 21.7686 253.487 24.3804H250.338C250.338 23.7334 249.902 23.3021 249.224 23.3021C248.57 23.3021 248.134 23.7334 248.134 24.3804V25.6264H251.598V28.8132H248.134V37.655H244.598Z" fill="#FF6F94"/>
<path d="M259.137 37.9425C255.334 37.9425 252.476 35.187 252.476 31.5448C252.476 27.9027 255.334 25.1471 259.137 25.1471C262.94 25.1471 265.798 27.9027 265.798 31.5448C265.798 35.187 262.94 37.9425 259.137 37.9425ZM259.137 34.564C260.881 34.564 262.164 33.2701 262.164 31.5448C262.164 29.8196 260.881 28.5257 259.137 28.5257C257.393 28.5257 256.109 29.8196 256.109 31.5448C256.109 33.2701 257.393 34.564 259.137 34.564Z" fill="#FF6F94"/>
<path d="M267.892 37.655V25.4347H271.428V27.1359C272.373 25.9379 273.657 25.243 275.158 25.243H275.643V28.8372H275.158C272.76 28.8372 271.428 30.0592 271.428 31.9522V37.655H267.892Z" fill="#FF6F94"/>
<path d="M282.98 37.9425C279.178 37.9425 276.319 35.187 276.319 31.5448C276.319 27.9027 279.178 25.1471 282.98 25.1471C286.299 25.1471 288.939 27.2797 289.351 30.2509H285.596C285.257 29.2206 284.216 28.5257 282.98 28.5257C281.236 28.5257 279.953 29.8196 279.953 31.5448C279.953 33.2701 281.236 34.564 282.98 34.564C284.216 34.564 285.257 33.8691 285.596 32.8388H289.351C288.939 35.81 286.299 37.9425 282.98 37.9425Z" fill="#FF6F94"/>
<path d="M297.363 37.9425C293.536 37.9425 290.678 35.187 290.678 31.5448C290.678 27.9027 293.536 25.1471 297.339 25.1471C301.118 25.1471 304 27.8787 304 31.6167C304 31.9522 303.976 32.3595 303.903 32.671H294.456C294.844 34.0608 295.982 34.9474 297.46 34.9474C298.598 34.9474 299.519 34.4681 300.028 33.7972H303.806C302.886 36.2652 300.415 37.9425 297.363 37.9425ZM297.339 28.1423C295.934 28.1423 294.868 29.0049 294.481 30.3468H300.221C299.858 29.0049 298.744 28.1423 297.339 28.1423Z" fill="#FF6F94"/>
<path d="M55.9623 9.0708H16.8787C14.2878 9.0708 12.1523 11.1523 12.1523 13.7308V19.4471H14.7746V13.7308C14.7746 12.5969 15.7168 11.6649 16.8787 11.6649H55.9623C57.1086 11.6649 58.0508 12.5813 58.0508 13.7308V14.259H60.6731V13.7308C60.6731 11.1678 58.5689 9.0708 55.9623 9.0708ZM58.0508 31.1127V44.5957C58.0508 45.7296 57.1243 46.6772 55.9623 46.6772H33.1466V49.2712H55.9623C58.5532 49.2712 60.6731 47.1742 60.6731 44.5957V31.1127H58.0508Z" fill="black"/>
<path d="M19.062 14.2588C19.9728 14.2588 20.6951 14.9889 20.6951 15.8743C20.6951 16.7752 19.9571 17.4897 19.062 17.4897C18.1513 17.4897 17.429 16.7597 17.429 15.8743C17.429 14.9733 18.167 14.2588 19.062 14.2588Z" fill="black"/>
<path d="M24.2896 14.2588C25.2003 14.2588 25.9226 14.9889 25.9226 15.8743C25.9226 16.7752 25.1846 17.4897 24.2896 17.4897C23.3788 17.4897 22.6565 16.7597 22.6565 15.8743C22.6565 14.9733 23.3945 14.2588 24.2896 14.2588Z" fill="black"/>
<path d="M29.5354 14.2588C30.4462 14.2588 31.1685 14.9889 31.1685 15.8743C31.1685 16.7752 30.4304 17.4897 29.5354 17.4897C28.6247 17.4897 27.9023 16.7597 27.9023 15.8743C27.9023 14.9733 28.6404 14.2588 29.5354 14.2588Z" fill="black"/>
<path d="M26.5823 22.04C28.7492 22.04 30.5081 23.7647 30.5081 25.9238V51.8643C30.5081 53.9923 28.7649 55.748 26.5823 55.748H10.8489C8.69763 55.748 6.9231 54.0079 6.9231 51.8643V25.9238C6.9231 23.7802 8.68193 22.04 10.8489 22.04H26.5823ZM18.7161 42.7949C15.1045 42.7949 12.1672 45.6842 12.1672 49.2725H25.2639C25.2639 45.6999 22.3275 42.7951 18.7161 42.7949ZM18.7151 33.7207C16.5472 33.7209 14.7903 35.4599 14.7903 37.6045C14.7905 39.7489 16.5473 41.4871 18.7151 41.4873C20.883 41.4873 22.6407 39.7491 22.6409 37.6045C22.6409 35.4598 20.8832 33.7207 18.7151 33.7207ZM16.1086 25.876C15.7161 25.876 15.3549 26.0319 15.1194 26.3115C15.0723 26.3737 15.0405 26.4359 14.9934 26.498C14.915 26.6377 14.8676 26.7618 14.8362 26.917C14.8048 26.9947 14.8049 27.0884 14.8049 27.1816C14.8051 27.896 15.3708 28.4707 16.1086 28.4707H21.3528C21.7452 28.4707 22.1222 28.2842 22.342 27.9893C22.4048 27.9272 22.4366 27.8648 22.468 27.8027C22.5465 27.6629 22.5938 27.5381 22.6252 27.3828C22.6564 27.3208 22.6565 27.2434 22.6565 27.166V27.1191C22.6565 26.4046 22.0908 25.8301 21.3528 25.8301L16.1086 25.876Z" fill="#FF6F94"/>
<path d="M58.0512 16.8525C58.0512 17.7379 57.9256 18.7787 57.6744 19.8816L58.0512 19.9748L60.2339 20.4718C60.5322 19.167 60.6736 17.9554 60.6736 16.8681H58.0512V16.8525ZM58.0512 22.5999L56.9835 22.2271C56.905 22.429 56.8264 22.662 56.7322 22.864C56.2926 23.9979 55.7587 25.1008 55.1463 26.126L56.7322 27.0424L57.4074 27.4463C57.6273 27.0891 57.8471 26.7007 58.0355 26.3279C58.5694 25.2872 59.0405 24.2154 59.4331 23.097L58.0355 22.5999H58.0512ZM33.1471 28.9375V31.9665C33.7437 32.3083 34.3404 32.6189 34.9371 32.9141L36.0991 30.5996C35.0942 30.087 34.1049 29.5589 33.1313 28.9531L33.1471 28.9375ZM53.7802 28.1298C52.8694 29.2948 51.8645 30.2889 50.7967 31.0501L52.3512 33.1471C53.6231 32.2306 54.8008 31.0656 55.8843 29.7142L53.7959 28.1298H53.7802ZM40.7785 32.4791C39.9619 32.1995 39.1611 31.9199 38.4074 31.6093L37.4181 34.0014C38.2347 34.3431 39.0826 34.6538 39.9462 34.9334C40.6372 35.1509 41.3438 35.3373 42.0347 35.4616L42.5215 32.9141C41.9405 32.8053 41.3752 32.6655 40.7785 32.4791ZM48.7711 32.2306C47.5306 32.7898 46.1958 33.0849 44.8454 33.116L44.8925 35.7101C46.6041 35.6635 48.2686 35.2907 49.8545 34.5917L48.7711 32.2306Z" fill="#FF6F94"/>
</svg>
