<svg width="296" height="64" viewBox="0 0 296 64" fill="none" xmlns="http://www.w3.org/2000/svg">
<path d="M74.9502 36.7319L81.0953 20.4459H85.4372L91.606 36.7319H87.5725L86.576 33.876H79.909L78.8887 36.7319H74.9502ZM81.0953 30.5007H85.366L83.2306 24.482L81.0953 30.5007Z" fill="black"/>
<path d="M92.9404 36.7319V24.6944H96.4044V25.8746C97.3535 24.9068 98.5872 24.4112 100.082 24.4112C102.858 24.4112 104.709 26.2286 104.709 28.9901V32.4362C104.709 33.0499 105.065 33.4039 105.681 33.4039H105.919V36.7319H104.946C102.502 36.7319 101.245 35.5282 101.245 33.1915V30.1467C101.245 28.6833 100.319 27.7392 98.9194 27.7392C97.4247 27.7392 96.4044 28.7069 96.4044 30.1939V36.7319H92.9404Z" fill="black"/>
<path d="M107.292 41.4525V38.1009H107.648C109.047 38.1009 109.783 37.6052 110.4 36.4723L105.583 24.6944H109.546L112.345 32.3418L115.121 24.6944H118.989L113.437 38.2661C112.488 40.5792 110.945 41.4525 107.648 41.4525H107.292Z" fill="black"/>
<path d="M123.757 36.7319L119.51 24.6944H123.449L125.632 32.2474L127.933 24.6944H131.468L133.746 32.2474L135.929 24.6944H139.772L135.525 36.7319H131.967L129.641 28.8957L127.316 36.7319H123.757Z" fill="black"/>
<path d="M141.321 36.7319V19.7378H144.785V25.969C145.734 24.954 146.968 24.4112 148.462 24.4112C151.238 24.4112 153.089 26.2286 153.089 28.9901V32.4362C153.089 33.0499 153.445 33.4039 154.062 33.4039H154.299V36.7319H153.326C150.882 36.7319 149.625 35.5282 149.625 33.1915V30.1467C149.625 28.6833 148.7 27.7392 147.3 27.7392C145.805 27.7392 144.785 28.7069 144.785 30.1939V36.7319H141.321Z" fill="black"/>
<path d="M161.8 37.0152C158.051 37.0152 155.251 34.3008 155.251 30.7132C155.251 27.1255 158.051 24.4112 161.776 24.4112C165.477 24.4112 168.301 27.1019 168.301 30.784C168.301 31.1144 168.277 31.5157 168.206 31.8225H158.953C159.332 33.1915 160.447 34.0648 161.895 34.0648C163.01 34.0648 163.911 33.5927 164.41 32.9318H168.111C167.209 35.3629 164.789 37.0152 161.8 37.0152ZM161.776 27.3615C160.4 27.3615 159.356 28.2113 158.976 29.533H164.6C164.244 28.2113 163.152 27.3615 161.776 27.3615Z" fill="black"/>
<path d="M170.282 36.7319V24.6944H173.746V26.3702C174.672 25.1901 175.929 24.5056 177.4 24.5056H177.875V28.046H177.4C175.051 28.046 173.746 29.2498 173.746 31.1144V36.7319H170.282Z" fill="black"/>
<path d="M185.086 37.0152C181.337 37.0152 178.537 34.3008 178.537 30.7132C178.537 27.1255 181.337 24.4112 185.062 24.4112C188.763 24.4112 191.587 27.1019 191.587 30.784C191.587 31.1144 191.563 31.5157 191.492 31.8225H182.239C182.618 33.1915 183.733 34.0648 185.181 34.0648C186.296 34.0648 187.197 33.5927 187.696 32.9318H191.397C190.495 35.3629 188.075 37.0152 185.086 37.0152ZM185.062 27.3615C183.686 27.3615 182.642 28.2113 182.262 29.533H187.886C187.53 28.2113 186.438 27.3615 185.062 27.3615Z" fill="black"/>
<path fill-rule="evenodd" clip-rule="evenodd" d="M54.3151 34.6903C54.3151 36.6168 53.6476 38.3916 52.5251 39.7872C50.993 35.646 47.2765 32.5514 42.7864 31.9295C41.0874 28.0765 37.2496 25.4977 32.896 25.4977C31.8038 25.4977 30.742 25.6645 29.6953 25.9679C28.4059 24.1931 26.7221 22.7975 24.7956 21.857C25.7513 21.3565 26.8434 21.0834 27.9963 21.0834C29.2705 21.0834 30.4386 21.4171 31.4701 22.0087C33.0022 18.9142 36.2029 16.8057 39.8891 16.8057C45.077 16.8057 49.294 21.0076 49.294 26.2106C49.294 26.4989 49.294 26.8022 49.2485 27.0753C52.2217 28.3192 54.3151 31.262 54.3151 34.6751V34.6903Z" fill="#DCB2FF"/>
<path fill-rule="evenodd" clip-rule="evenodd" d="M64.9179 26.7892C63.4919 26.501 62.2481 26.0914 61.4441 25.424C60.6401 24.7565 60.1244 23.8919 60.1244 22.1777V13.0155C60.1244 11.2103 59.2597 9.78441 58.0917 8.96527C57.0905 8.26748 55.9376 7.94893 54.8606 7.88825C54.8151 7.88825 54.7544 7.85791 54.7089 7.85791H15.2839C14.222 7.93376 13.0843 8.25231 12.0831 8.96527C10.9303 9.76924 10.0504 11.1952 10.0504 13.0003V22.1777C10.0504 22.8149 9.9746 23.3458 9.83807 23.7857C10.6117 23.1334 11.446 22.557 12.341 22.0867V13.0003C12.341 11.8626 12.7506 11.271 13.3877 10.8159C13.9338 10.4367 14.7074 10.4064 15.4204 10.4064H54.6937C54.6937 10.4064 54.7696 10.4064 54.8151 10.376C54.8606 10.376 54.9213 10.4064 54.9516 10.4064C55.7556 10.4064 56.1197 10.3608 56.7568 10.8159C57.3939 11.271 57.8034 11.8474 57.8034 13.0003V22.1626C57.8034 24.4076 58.6529 26.1066 59.9575 27.1836C60.3367 27.5022 60.8221 27.669 61.2469 27.8966C60.807 28.1089 60.3519 28.291 59.9575 28.6095C58.6681 29.6714 57.8034 31.3855 57.8034 33.6306V42.7928C57.8034 43.9457 57.3939 44.5221 56.7568 44.9772C56.1197 45.4323 55.1792 45.6598 54.3752 45.6598C54.0718 45.6598 53.7684 45.7812 53.556 45.9936C53.3437 46.2059 53.2071 46.5093 53.2071 46.8127C53.2071 47.1161 53.3285 47.4195 53.556 47.6319C53.7684 47.8442 54.1325 48.2083 54.4359 48.2083C55.6342 48.2083 56.9388 47.6622 58.0765 46.8431C59.2294 46.0391 60.1092 44.6132 60.1092 42.7928V33.6306C60.1092 31.9316 60.6249 31.0518 61.4289 30.3843C62.2329 29.7169 63.4768 29.3073 64.9027 29.0191C65.4488 28.9129 65.8584 28.4427 65.8584 27.8966C65.8584 27.3505 65.464 26.8651 64.9027 26.774L64.9179 26.7892Z" fill="black"/>
<path fill-rule="evenodd" clip-rule="evenodd" d="M16.1792 16.1876C17.059 16.1876 17.7871 15.4746 17.7871 14.5796C17.7871 13.6846 17.0742 12.9717 16.1792 12.9717C15.2842 12.9717 14.5712 13.6846 14.5712 14.5796C14.5712 15.4746 15.2842 16.1876 16.1792 16.1876Z" fill="black"/>
<path fill-rule="evenodd" clip-rule="evenodd" d="M21.3062 16.1876C22.186 16.1876 22.9141 15.4746 22.9141 14.5796C22.9141 13.6846 22.2012 12.9717 21.3062 12.9717C20.4112 12.9717 19.6982 13.6846 19.6982 14.5796C19.6982 15.4746 20.4112 16.1876 21.3062 16.1876Z" fill="black"/>
<path fill-rule="evenodd" clip-rule="evenodd" d="M26.4333 16.1876C27.3131 16.1876 28.0413 15.4746 28.0413 14.5796C28.0413 13.6846 27.3283 12.9717 26.4333 12.9717C25.5383 12.9717 24.8254 13.6846 24.8254 14.5796C24.8254 15.4746 25.5383 16.1876 26.4333 16.1876Z" fill="black"/>
<path fill-rule="evenodd" clip-rule="evenodd" d="M50.3559 48.2544C48.7783 51.6523 45.35 54.0036 41.3605 54.0036H27.6777C24.204 54.0036 22.2623 54.0036 20.9729 54.0036H17.1199C16.4828 54.0036 16.8317 54.0036 15.8457 54.0036C14.5715 54.0036 13.2062 54.0036 10.4757 54.0036H10.3392C8.68576 54.0036 7.13849 53.594 5.77325 52.8811C6.7896 52.6384 7.74527 52.1226 8.65542 51.531C8.95881 51.3338 9.2622 51.1062 9.56558 50.8787C9.92965 50.6057 10.2937 50.3174 10.6578 50.0141C11.0673 49.6803 11.4617 49.3314 11.8713 48.9825C14.5866 46.6313 17.4385 43.916 20.806 42.0805C21.3825 41.7468 21.9893 41.4586 22.596 41.2007L23.3242 43.1424L24.295 45.7515C24.8563 47.2532 26.2973 48.2544 27.9053 48.2544H50.371H50.3559Z" fill="#932FEE"/>
<path fill-rule="evenodd" clip-rule="evenodd" d="M51.2665 44.1271C51.2665 43.1715 51.13 42.2462 50.8721 41.3663C49.6737 37.2706 45.8814 34.2671 41.3761 34.2671H41.2547C40.3446 30.5658 37.0073 27.8201 33.033 27.8201C31.4554 27.8201 29.9991 28.2449 28.7552 28.9882C27.5113 26.4852 25.3725 24.4981 22.7482 23.4665C21.4739 22.966 20.0784 22.6777 18.6221 22.6777C16.0585 22.6777 13.7224 23.5272 11.8414 24.938C11.2043 25.4082 10.6582 25.924 10.1576 26.5156C10.0818 26.5914 10.0211 26.6824 9.94526 26.7583C9.67222 27.092 9.44468 27.4257 9.21714 27.7746C9.17163 27.8353 9.12612 27.896 9.09578 27.9718C9.05027 28.0173 9.01994 28.0932 8.97443 28.169C7.94291 29.8528 7.36648 31.84 7.36648 33.9637C7.36648 34.2368 7.36648 34.4643 7.39682 34.7222C3.40729 35.9812 0.509949 39.728 0.509949 44.1271C0.509949 45.6289 0.843674 47.07 1.45045 48.3291C2.08756 49.2089 2.64882 49.7701 3.17975 50.0887C3.78652 50.4528 4.36296 50.5438 4.96973 50.4376C5.62201 50.3162 6.39564 49.9825 7.3058 49.3757C7.88224 48.9813 8.48901 48.5111 9.14129 47.9802C9.17163 47.9498 9.1868 47.9346 9.21714 47.9043C9.33849 47.783 9.45985 47.6919 9.56603 47.5858C10.0211 47.161 10.37 46.5997 10.5369 45.9475L14.4809 31.7945C14.9208 30.1562 16.3164 29.064 18.0153 28.9882C19.7295 28.9275 21.2009 29.8983 21.7925 31.4911L24.2044 37.9532C25.418 37.6043 26.6922 37.392 28.0423 37.3465C28.7552 37.3161 29.3468 37.8622 29.3772 38.5752C29.4075 39.2881 28.8614 39.8797 28.1484 39.9101C27.0866 39.9556 26.0551 40.1073 25.0842 40.3652L26.7529 44.8553C26.9349 45.3559 27.4051 45.6896 27.9512 45.6896H51.1603C51.2665 45.1283 51.2665 44.7188 51.2665 44.1271ZM32.138 42.1096C31.8953 42.3675 31.5615 42.4889 31.243 42.4889C30.9244 42.4889 30.5907 42.3675 30.3328 42.1096C29.8322 41.609 29.8322 40.8051 30.3328 40.3045L31.9863 38.651L30.3328 36.9976C29.8322 36.497 29.8322 35.693 30.3328 35.1924C30.8334 34.6918 31.6526 34.6918 32.138 35.1924L35.6117 38.6662L32.138 42.14V42.1096Z" fill="#932FEE"/>
<path d="M21.7007 38.7894C21.0939 39.0625 20.4871 39.3507 19.8955 39.6541C17.5746 40.8676 15.5268 42.4452 13.6913 43.9925L16.8768 32.5245C17.1044 31.6902 17.8325 31.584 18.06 31.584C18.2876 31.584 19.0157 31.6143 19.3191 32.4183L20.8967 36.6809L21.7007 38.8046V38.7894Z" fill="#932FEE"/>
</svg>
