<svg width="64" height="64" viewBox="0 0 64 64" fill="none" xmlns="http://www.w3.org/2000/svg">
<path fill-rule="evenodd" clip-rule="evenodd" d="M52.4018 35.4705C52.4018 37.3291 51.7579 39.0414 50.6749 40.3878C49.1968 36.3925 45.6112 33.407 41.2792 32.8069C39.6401 29.0896 35.9375 26.6017 31.7372 26.6017C30.6835 26.6017 29.659 26.7627 28.6492 27.0554C27.4052 25.3431 25.7808 23.9966 23.9221 23.0893C24.8441 22.6063 25.8978 22.3429 27.0101 22.3429C28.2394 22.3429 29.3663 22.6649 30.3615 23.2356C31.8397 20.2501 34.9276 18.2158 38.4839 18.2158C43.4891 18.2158 47.5576 22.2697 47.5576 27.2895C47.5576 27.5676 47.5576 27.8603 47.5137 28.1237C50.3822 29.3238 52.4018 32.163 52.4018 35.4559V35.4705Z" fill="white"/>
<path fill-rule="evenodd" clip-rule="evenodd" d="M62.6311 27.848C61.2555 27.5699 60.0554 27.1748 59.2797 26.5308C58.5041 25.8869 58.0065 25.0527 58.0065 23.3989V14.5594C58.0065 12.8178 57.1723 11.4421 56.0454 10.6519C55.0795 9.97864 53.9672 9.67131 52.9281 9.61277C52.8842 9.61277 52.8257 9.5835 52.7818 9.5835H14.7454C13.721 9.65667 12.6233 9.96401 11.6574 10.6519C10.5452 11.4275 9.69635 12.8032 9.69635 14.5448V23.3989C9.69635 24.0136 9.62317 24.5258 9.49146 24.9502C10.2378 24.3209 11.0428 23.7648 11.9062 23.3111V14.5448C11.9062 13.4471 12.3014 12.8764 12.916 12.4373C13.4429 12.0714 14.1893 12.0422 14.8771 12.0422H52.7672C52.7672 12.0422 52.8403 12.0422 52.8842 12.0129C52.9281 12.0129 52.9867 12.0422 53.0159 12.0422C53.7916 12.0422 54.1428 11.9983 54.7575 12.4373C55.3722 12.8764 55.7673 13.4325 55.7673 14.5448V23.3843C55.7673 25.5503 56.5869 27.1894 57.8455 28.2285C58.2114 28.5358 58.6797 28.6968 59.0895 28.9163C58.6651 29.1212 58.226 29.2968 57.8455 29.6042C56.6015 30.6286 55.7673 32.2824 55.7673 34.4484V43.2879C55.7673 44.4002 55.3722 44.9563 54.7575 45.3953C54.1428 45.8344 53.2355 46.0539 52.4598 46.0539C52.1671 46.0539 51.8744 46.171 51.6695 46.3759C51.4646 46.5808 51.3329 46.8735 51.3329 47.1662C51.3329 47.4589 51.45 47.7516 51.6695 47.9565C51.8744 48.1614 52.2257 48.5126 52.5184 48.5126C53.6745 48.5126 54.9331 47.9857 56.0308 47.1954C57.143 46.4198 57.9918 45.0441 57.9918 43.2879V34.4484C57.9918 32.8092 58.4894 31.9604 59.2651 31.3165C60.0407 30.6725 61.2408 30.2774 62.6165 29.9993C63.1434 29.8969 63.5385 29.4432 63.5385 28.9163C63.5385 28.3895 63.158 27.9212 62.6165 27.8333L62.6311 27.848Z" fill="white"/>
<path fill-rule="evenodd" clip-rule="evenodd" d="M15.6093 17.6197C16.4581 17.6197 17.1606 16.9319 17.1606 16.0684C17.1606 15.2049 16.4728 14.5171 15.6093 14.5171C14.7458 14.5171 14.058 15.2049 14.058 16.0684C14.058 16.9319 14.7458 17.6197 15.6093 17.6197Z" fill="white"/>
<path fill-rule="evenodd" clip-rule="evenodd" d="M20.5557 17.6197C21.4045 17.6197 22.107 16.9319 22.107 16.0684C22.107 15.2049 21.4192 14.5171 20.5557 14.5171C19.6922 14.5171 19.0044 15.2049 19.0044 16.0684C19.0044 16.9319 19.6922 17.6197 20.5557 17.6197Z" fill="white"/>
<path fill-rule="evenodd" clip-rule="evenodd" d="M25.5022 17.6197C26.3511 17.6197 27.0535 16.9319 27.0535 16.0684C27.0535 15.2049 26.3657 14.5171 25.5022 14.5171C24.6388 14.5171 23.9509 15.2049 23.9509 16.0684C23.9509 16.9319 24.6388 17.6197 25.5022 17.6197Z" fill="white"/>
<path fill-rule="evenodd" clip-rule="evenodd" d="M48.5821 48.5572C47.0601 51.8355 43.7525 54.1039 39.9035 54.1039H26.7028C23.3514 54.1039 21.4781 54.1039 20.2341 54.1039H16.5168C15.9021 54.1039 16.2387 54.1039 15.2875 54.1039C14.0581 54.1039 12.741 54.1039 10.1067 54.1039H9.97496C8.37975 54.1039 6.88697 53.7088 5.56982 53.0209C6.55037 52.7867 7.47237 52.2892 8.35047 51.7184C8.64317 51.5281 8.93587 51.3086 9.22857 51.0891C9.57981 50.8257 9.93105 50.5476 10.2823 50.2549C10.6774 49.9329 11.058 49.5963 11.4531 49.2597C14.0728 46.9913 16.8241 44.3716 20.0731 42.6008C20.6292 42.2788 21.2146 42.0007 21.8 41.752L22.5025 43.6252L23.4392 46.1425C23.9807 47.5913 25.371 48.5572 26.9223 48.5572H48.5967H48.5821Z" fill="white"/>
<path fill-rule="evenodd" clip-rule="evenodd" d="M49.4607 44.5752C49.4607 43.6532 49.3289 42.7605 49.0802 41.9117C47.924 37.9602 44.2652 35.0625 39.9186 35.0625H39.8016C38.9235 31.4915 35.7038 28.8426 31.8694 28.8426C30.3473 28.8426 28.9424 29.2524 27.7423 29.9695C26.5422 27.5547 24.4787 25.6375 21.9469 24.6424C20.7175 24.1594 19.3711 23.8813 17.9661 23.8813C15.4928 23.8813 13.239 24.7009 11.4243 26.062C10.8096 26.5156 10.2828 27.0132 9.7998 27.584C9.72663 27.6572 9.66809 27.745 9.59491 27.8182C9.33148 28.1401 9.11196 28.4621 8.89243 28.7987C8.84853 28.8572 8.80462 28.9158 8.77535 28.989C8.73145 29.0329 8.70218 29.106 8.65827 29.1792C7.66309 30.8037 7.10696 32.7209 7.10696 34.7698C7.10696 35.0332 7.10696 35.2527 7.13623 35.5015C3.28723 36.7162 0.491943 40.3311 0.491943 44.5752C0.491943 46.0241 0.813913 47.4144 1.39931 48.6291C2.01398 49.478 2.55548 50.0195 3.0677 50.3268C3.6531 50.678 4.20923 50.7658 4.79463 50.6634C5.42394 50.5463 6.17032 50.2244 7.04842 49.639C7.60455 49.2584 8.18995 48.8048 8.81926 48.2925C8.84853 48.2633 8.86316 48.2486 8.89243 48.2194C9.00951 48.1023 9.12659 48.0145 9.22904 47.912C9.66809 47.5022 10.0047 46.9607 10.1657 46.3314L13.9708 32.677C14.3952 31.0964 15.7416 30.0427 17.3807 29.9695C19.0345 29.911 20.4541 30.8476 21.0249 32.3843L23.3518 38.6188C24.5226 38.2822 25.752 38.0773 27.0545 38.0334C27.7423 38.0041 28.3131 38.531 28.3424 39.2188C28.3716 39.9067 27.8448 40.4774 27.1569 40.5067C26.1325 40.5506 25.1373 40.697 24.2006 40.9458L25.8105 45.2777C25.9861 45.7607 26.4398 46.0826 26.9667 46.0826H49.3582C49.4607 45.5412 49.4607 45.146 49.4607 44.5752ZM31.0059 42.6288C30.7718 42.8776 30.4498 42.9947 30.1425 42.9947C29.8351 42.9947 29.5132 42.8776 29.2644 42.6288C28.7814 42.1458 28.7814 41.3702 29.2644 40.8872L30.8596 39.292L29.2644 37.6968C28.7814 37.2138 28.7814 36.4382 29.2644 35.9552C29.7473 35.4723 30.5376 35.4723 31.0059 35.9552L34.3573 39.3066L31.0059 42.6581V42.6288Z" fill="white"/>
<path d="M20.9363 39.4253C20.3509 39.6887 19.7655 39.9668 19.1947 40.2595C16.9555 41.4303 14.9798 42.9523 13.209 44.4451L16.2823 33.381C16.5019 32.5761 17.2043 32.4736 17.4239 32.4736C17.6434 32.4736 18.3459 32.5029 18.6386 33.2786L20.1606 37.391L20.9363 39.4399V39.4253Z" fill="white"/>
</svg>
