<svg width="300" height="64" viewBox="0 0 300 64" fill="none" xmlns="http://www.w3.org/2000/svg">
<path d="M71.9752 37.5619V21.0684H82.5645V24.5583H75.6803V27.6897H81.6323V31.1796H75.6803V37.5619H71.9752Z" fill="white"/>
<path d="M88.5287 37.8487C85.8275 37.8487 84.0348 36.0321 84.0348 33.2592V25.3711H87.5247V32.2075C87.5247 33.57 88.3852 34.4783 89.6999 34.4783C91.1102 34.4783 92.0664 33.5461 92.0664 32.1597V25.3711H95.5563V33.2114C95.5563 33.8329 95.9149 34.1915 96.5364 34.1915H96.7754V37.5619H95.7954C94.1221 37.5619 92.9986 37.0121 92.4727 35.9125C91.5166 37.1794 90.178 37.8487 88.5287 37.8487Z" fill="white"/>
<path d="M102.953 37.5619C100.156 37.5619 98.7222 36.2711 98.7222 33.7612V20.3513H102.212V32.9963C102.212 33.7612 102.666 34.1915 103.455 34.1915H104.196V37.5619H102.953Z" fill="white"/>
<path d="M109.98 37.5619C107.183 37.5619 105.749 36.2711 105.749 33.7612V20.3513H109.239V32.9963C109.239 33.7612 109.693 34.1915 110.481 34.1915H111.223V37.5619H109.98Z" fill="white"/>
<path d="M117.432 37.8487C114.324 37.8487 112.221 36.1277 112.221 33.8568H115.711C115.711 34.5739 116.428 35.0759 117.432 35.0759C118.316 35.0759 118.961 34.6696 118.961 34.1198C118.961 32.327 112.412 33.4266 112.412 29.0283C112.412 26.4467 114.587 25.0842 117.264 25.0842C120.181 25.0842 122.236 26.7097 122.236 28.9088H118.77C118.77 28.2634 118.125 27.8331 117.24 27.8331C116.452 27.8331 115.854 28.1917 115.854 28.7415C115.854 30.4625 122.428 29.4108 122.428 33.7612C122.428 36.1994 120.396 37.8487 117.432 37.8487Z" fill="white"/>
<path d="M129.498 37.5619C126.94 37.5619 125.195 36.0082 125.195 33.6895V28.5502H123.379V25.3711H124.383C125.052 25.3711 125.387 25.0364 125.387 24.3671V22.168H128.685V25.3711H132.677V28.5502H128.685V33.3549C128.685 33.9764 129.116 34.3827 129.713 34.3827C130.383 34.3827 130.789 33.9046 130.789 33.1158H133.896C133.896 35.8169 132.175 37.5619 129.498 37.5619Z" fill="white"/>
<path d="M141.181 37.8487C137.428 37.8487 134.608 35.0998 134.608 31.4665C134.608 27.8331 137.428 25.0842 141.181 25.0842C144.934 25.0842 147.755 27.8331 147.755 31.4665C147.755 35.0998 144.934 37.8487 141.181 37.8487ZM141.181 34.4783C142.902 34.4783 144.169 33.1875 144.169 31.4665C144.169 29.7454 142.902 28.4546 141.181 28.4546C139.46 28.4546 138.193 29.7454 138.193 31.4665C138.193 33.1875 139.46 34.4783 141.181 34.4783Z" fill="white"/>
<path d="M149.821 37.5619V25.3711H153.311V27.0682C154.243 25.873 155.51 25.1798 156.992 25.1798H157.47V28.7654H156.992C154.625 28.7654 153.311 29.9845 153.311 31.8728V37.5619H149.821Z" fill="white"/>
<path d="M160.124 42.3426V38.9483H160.483C161.893 38.9483 162.634 38.4463 163.256 37.299L158.403 25.3711H162.395L165.216 33.1158L168.012 25.3711H171.909L166.315 39.1156C165.359 41.4582 163.805 42.3426 160.483 42.3426H160.124Z" fill="white"/>
<path d="M183.025 37.5619L177.432 21.0684H181.519L184.938 32.4226L188.356 21.0684H191.702L195.168 32.4226L198.539 21.0684H202.531L196.961 37.5619H193.256L189.981 26.8053L186.754 37.5619H183.025Z" fill="white"/>
<path d="M208.69 37.8487C204.937 37.8487 202.117 35.0998 202.117 31.4665C202.117 27.8331 204.937 25.0842 208.69 25.0842C212.443 25.0842 215.264 27.8331 215.264 31.4665C215.264 35.0998 212.443 37.8487 208.69 37.8487ZM208.69 34.4783C210.411 34.4783 211.678 33.1875 211.678 31.4665C211.678 29.7454 210.411 28.4546 208.69 28.4546C206.969 28.4546 205.702 29.7454 205.702 31.4665C205.702 33.1875 206.969 34.4783 208.69 34.4783Z" fill="white"/>
<path d="M217.33 37.5619V25.3711H220.82V27.0682C221.752 25.873 223.019 25.1798 224.501 25.1798H224.979V28.7654H224.501C222.134 28.7654 220.82 29.9845 220.82 31.8728V37.5619H217.33Z" fill="white"/>
<path d="M226.668 37.5619V20.3513H230.158V30.0323L234.365 25.3711H238.787L233.744 30.7733L238.955 37.5619H234.485L231.33 33.3549L230.158 34.5978V37.5619H226.668Z" fill="white"/>
<path d="M241.379 37.5619V28.7415H239.539V25.5623H241.379V23.9846C241.379 21.6421 243.148 20.0645 245.754 20.0645C248.431 20.0645 250.152 21.7138 250.152 24.3193H247.044C247.044 23.6739 246.614 23.2436 245.945 23.2436C245.3 23.2436 244.869 23.6739 244.869 24.3193V25.5623H248.287V28.7415H244.869V37.5619H241.379Z" fill="white"/>
<path d="M255.727 37.8487C251.974 37.8487 249.153 35.0998 249.153 31.4665C249.153 27.8331 251.974 25.0842 255.727 25.0842C259.48 25.0842 262.3 27.8331 262.3 31.4665C262.3 35.0998 259.48 37.8487 255.727 37.8487ZM255.727 34.4783C257.448 34.4783 258.715 33.1875 258.715 31.4665C258.715 29.7454 257.448 28.4546 255.727 28.4546C254.006 28.4546 252.739 29.7454 252.739 31.4665C252.739 33.1875 254.006 34.4783 255.727 34.4783Z" fill="white"/>
<path d="M264.367 37.5619V25.3711H267.857V27.0682C268.789 25.873 270.056 25.1798 271.538 25.1798H272.016V28.7654H271.538C269.171 28.7654 267.857 29.9845 267.857 31.8728V37.5619H264.367Z" fill="white"/>
<path d="M279.257 37.8487C275.504 37.8487 272.684 35.0998 272.684 31.4665C272.684 27.8331 275.504 25.0842 279.257 25.0842C282.532 25.0842 285.137 27.2116 285.544 30.1757H281.839C281.504 29.1478 280.476 28.4546 279.257 28.4546C277.536 28.4546 276.269 29.7454 276.269 31.4665C276.269 33.1875 277.536 34.4783 279.257 34.4783C280.476 34.4783 281.504 33.7851 281.839 32.7573H285.544C285.137 35.7213 282.532 37.8487 279.257 37.8487Z" fill="white"/>
<path d="M293.45 37.8487C289.674 37.8487 286.853 35.0998 286.853 31.4665C286.853 27.8331 289.674 25.0842 293.426 25.0842C297.155 25.0842 300 27.8092 300 31.5382C300 31.8728 299.976 32.2792 299.904 32.5899H290.582C290.964 33.9764 292.088 34.8608 293.546 34.8608C294.669 34.8608 295.578 34.3827 296.08 33.7134H299.809C298.9 36.1755 296.462 37.8487 293.45 37.8487ZM293.426 28.0722C292.04 28.0722 290.988 28.9327 290.606 30.2713H296.271C295.912 28.9327 294.813 28.0722 293.426 28.0722Z" fill="white"/>
<path d="M55.226 9.04688H16.6567C14.0999 9.04688 11.9924 11.1233 11.9924 13.6956V19.3981H14.5802V13.6956C14.5802 12.5644 15.51 11.6347 16.6567 11.6347H55.226C56.3572 11.6347 57.287 12.549 57.287 13.6956V14.2225H59.8748V13.6956C59.8748 11.1388 57.7983 9.04688 55.226 9.04688ZM57.287 31.0356V44.486C57.287 45.6172 56.3727 46.5625 55.226 46.5625H32.7105V49.1503H55.226C57.7828 49.1503 59.8748 47.0583 59.8748 44.486V31.0356H57.287Z" fill="white"/>
<path d="M18.8113 14.2222C19.71 14.2222 20.4229 14.9505 20.4229 15.8337C20.4229 16.7325 19.6945 17.4453 18.8113 17.4453C17.9125 17.4453 17.1997 16.717 17.1997 15.8337C17.1997 14.935 17.928 14.2222 18.8113 14.2222Z" fill="white"/>
<path d="M23.97 14.2222C24.8687 14.2222 25.5815 14.9505 25.5815 15.8337C25.5815 16.7325 24.8532 17.4453 23.97 17.4453C23.0712 17.4453 22.3584 16.717 22.3584 15.8337C22.3584 14.935 23.0867 14.2222 23.97 14.2222Z" fill="white"/>
<path d="M29.1469 14.2222C30.0456 14.2222 30.7584 14.9505 30.7584 15.8337C30.7584 16.7325 30.0301 17.4453 29.1469 17.4453C28.2481 17.4453 27.5353 16.717 27.5353 15.8337C27.5353 14.935 28.2636 14.2222 29.1469 14.2222Z" fill="white"/>
<path d="M26.2324 21.9849C28.3709 21.9849 30.1064 23.705 30.1064 25.8589V51.7368C30.1064 53.8598 28.3864 55.6108 26.2324 55.6108H10.7061C8.58312 55.6108 6.83203 53.8753 6.83203 51.7368V25.8589C6.83203 23.7205 8.56762 21.9849 10.7061 21.9849H26.2324ZM18.4697 42.6899C14.9058 42.6899 12.008 45.5715 12.0078 49.1509H24.9316C24.9314 45.5871 22.0335 42.6901 18.4697 42.6899ZM18.4697 33.6372C16.3302 33.6372 14.5957 35.3717 14.5957 37.5112C14.5957 39.6507 16.3302 41.3853 18.4697 41.3853C20.609 41.385 22.3437 39.6506 22.3438 37.5112C22.3438 35.3718 20.6091 33.6374 18.4697 33.6372ZM15.8965 25.812C15.5091 25.812 15.1523 25.9667 14.9199 26.2456C14.8735 26.3075 14.8423 26.3692 14.7959 26.4312C14.7184 26.5706 14.6726 26.6951 14.6416 26.8501C14.6106 26.9276 14.6104 27.0208 14.6104 27.1138C14.6105 27.8264 15.1683 28.3999 15.8965 28.3999H21.0723C21.4596 28.3999 21.8319 28.2138 22.0488 27.9194C22.1108 27.8575 22.1419 27.7949 22.1729 27.7329C22.2502 27.5937 22.2962 27.4697 22.3271 27.3149C22.3581 27.253 22.3584 27.1755 22.3584 27.0981V27.0513C22.3583 26.3386 21.8005 25.7652 21.0723 25.7651L15.8965 25.812Z" fill="white"/>
<path d="M57.2874 16.8096C57.2874 17.6928 57.1635 18.7311 56.9155 19.8313L57.2874 19.9242L59.4414 20.4201C59.7358 19.1185 59.8753 17.9098 59.8753 16.8251H57.2874V16.8096ZM57.2874 22.5431L56.2337 22.1712C56.1562 22.3726 56.0788 22.605 55.9858 22.8065C55.5519 23.9377 55.025 25.0379 54.4207 26.0606L55.9858 26.9749L56.6521 27.3778C56.8691 27.0214 57.086 26.634 57.2719 26.2621C57.7988 25.2238 58.2637 24.1546 58.6511 23.0389L57.2719 22.5431H57.2874ZM32.7109 28.8654V31.8871C33.2998 32.228 33.8886 32.5379 34.4775 32.8323L35.6242 30.5234C34.6324 30.0121 33.6562 29.4852 32.6954 28.8809L32.7109 28.8654ZM53.0726 28.0596C52.1738 29.2218 51.1821 30.2135 50.1283 30.9728L51.6624 33.0648C52.9176 32.1505 54.0798 30.9883 55.149 29.6402L53.088 28.0596H53.0726ZM40.2419 32.3985C39.4362 32.1195 38.6459 31.8406 37.9021 31.5307L36.9258 33.917C37.7316 34.258 38.5684 34.5679 39.4207 34.8468C40.1025 35.0637 40.7998 35.2497 41.4816 35.3737L41.962 32.8323C41.3886 32.7239 40.8308 32.5844 40.2419 32.3985ZM48.1294 32.1505C46.9052 32.7084 45.588 33.0028 44.2554 33.0338L44.3019 35.6216C45.9909 35.5751 47.6335 35.2032 49.1986 34.5059L48.1294 32.1505Z" fill="white"/>
</svg>
