<svg width="296" height="64" viewBox="0 0 296 64" fill="none" xmlns="http://www.w3.org/2000/svg">
<path d="M78.2192 36.0871L84.4733 19.7968H88.8923L95.1706 36.0871H91.0655L90.0513 33.2304H83.266L82.2276 36.0871H78.2192ZM84.4733 29.8543H88.8198L86.6466 23.8339L84.4733 29.8543Z" fill="#07C799"/>
<path d="M96.5287 36.0871V24.0464H100.054V25.2269C101.02 24.2589 102.276 23.7631 103.797 23.7631C106.622 23.7631 108.506 25.581 108.506 28.3433V31.7902C108.506 32.404 108.868 32.7582 109.496 32.7582H109.737V36.0871H108.747C106.26 36.0871 104.98 34.883 104.98 32.5457V29.5001C104.98 28.0363 104.038 27.092 102.614 27.092C101.092 27.092 100.054 28.06 100.054 29.5473V36.0871H96.5287Z" fill="#07C799"/>
<path d="M116.696 36.3704C113.316 36.3704 110.756 33.6553 110.756 30.0667C110.756 26.4781 113.316 23.7631 116.696 23.7631C118.193 23.7631 119.473 24.3061 120.415 25.2505V24.0464H123.94V31.7902C123.94 32.404 124.303 32.7582 124.93 32.7582H125.172V36.0871H124.182C122.492 36.0871 121.381 35.544 120.825 34.458C119.835 35.6385 118.411 36.3704 116.696 36.3704ZM117.396 33.0415C119.135 33.0415 120.415 31.7666 120.415 30.0667C120.415 28.3669 119.135 27.092 117.396 27.092C115.682 27.092 114.402 28.3669 114.402 30.0667C114.402 31.7666 115.682 33.0415 117.396 33.0415Z" fill="#07C799"/>
<path d="M131.411 36.0871C128.586 36.0871 127.137 34.8122 127.137 32.3332V19.0885H130.663V31.5777C130.663 32.3332 131.122 32.7582 131.918 32.7582H132.667V36.0871H131.411Z" fill="#07C799"/>
<path d="M134.386 40.8089V37.4564H134.748C136.173 37.4564 136.921 36.9606 137.549 35.8274L132.647 24.0464H136.68L139.529 31.6958L142.354 24.0464H146.29L140.64 37.6216C139.674 39.9353 138.104 40.8089 134.748 40.8089H134.386Z" fill="#07C799"/>
<path d="M153.558 36.0871C150.974 36.0871 149.211 34.5525 149.211 32.2624V27.1864H147.376V24.0464H148.39C149.066 24.0464 149.404 23.7159 149.404 23.0548V20.8828H152.737V24.0464H156.769V27.1864H152.737V31.9319C152.737 32.5457 153.171 32.947 153.775 32.947C154.451 32.947 154.862 32.4749 154.862 31.6958H158.001C158.001 34.3636 156.262 36.0871 153.558 36.0871Z" fill="#07C799"/>
<path d="M161.255 22.559C160.023 22.559 159.081 21.6619 159.081 20.4342C159.081 19.2302 160.023 18.333 161.255 18.333C162.51 18.333 163.452 19.2302 163.452 20.4342C163.452 21.6619 162.51 22.559 161.255 22.559ZM159.492 36.0871V24.0464H163.017V36.0871H159.492Z" fill="#07C799"/>
<path d="M171.774 36.3704C167.983 36.3704 165.133 33.6553 165.133 30.0667C165.133 26.4781 167.983 23.7631 171.774 23.7631C175.082 23.7631 177.714 25.8643 178.125 28.7918H174.382C174.044 27.7766 173.005 27.092 171.774 27.092C170.035 27.092 168.755 28.3669 168.755 30.0667C168.755 31.7666 170.035 33.0415 171.774 33.0415C173.005 33.0415 174.044 32.3568 174.382 31.3416H178.125C177.714 34.2692 175.082 36.3704 171.774 36.3704Z" fill="#07C799"/>
<path d="M184.687 36.3704C181.548 36.3704 179.423 34.6705 179.423 32.4276H182.949C182.949 33.1359 183.673 33.6317 184.687 33.6317C185.581 33.6317 186.233 33.2304 186.233 32.6873C186.233 30.9167 179.616 32.0027 179.616 27.6586C179.616 25.1088 181.814 23.7631 184.518 23.7631C187.464 23.7631 189.541 25.3685 189.541 27.5406H186.039C186.039 26.9031 185.387 26.4781 184.494 26.4781C183.697 26.4781 183.093 26.8323 183.093 27.3753C183.093 29.0751 189.734 28.0363 189.734 32.3332C189.734 34.7413 187.681 36.3704 184.687 36.3704Z" fill="#07C799"/>
<path d="M22.1224 24.3935C21.8902 24.3481 21.6581 24.3179 21.4104 24.3179H7.34092C7.09327 24.3179 6.84562 24.3481 6.61345 24.3935C5.35974 24.6659 4.38462 25.6193 4.10602 26.8451H24.6298C24.3512 25.6193 23.3606 24.6659 22.1224 24.3935Z" fill="#269274"/>
<path d="M29.8769 44.5336V47.0608H44.0856V44.5336H29.8769ZM57.536 7.89648H17.7266C15.1728 7.89648 13.0677 9.92431 13.0677 12.4515V18.0054H15.6526V12.4515C15.6526 11.3468 16.5813 10.4237 17.7266 10.4237H57.536C58.6659 10.4237 59.5946 11.3317 59.5946 12.4515V18.0054H62.1794V12.4515C62.1794 9.93944 60.1054 7.89648 57.536 7.89648Z" fill="black"/>
<path d="M19.8635 12.9502C20.7612 12.9502 21.4732 13.6614 21.4732 14.524C21.4732 15.4017 20.7457 16.0979 19.8635 16.0979C18.9658 16.0979 18.2538 15.3866 18.2538 14.524C18.2538 13.6463 18.9812 12.9502 19.8635 12.9502Z" fill="black"/>
<path d="M25.0329 12.9502C25.9307 12.9502 26.6426 13.6614 26.6426 14.524C26.6426 15.4017 25.9152 16.0979 25.0329 16.0979C24.1352 16.0979 23.4232 15.3866 23.4232 14.524C23.4232 13.6463 24.1507 12.9502 25.0329 12.9502Z" fill="black"/>
<path d="M30.2024 12.9502C31.1001 12.9502 31.8121 13.6614 31.8121 14.524C31.8121 15.4017 31.0846 16.0979 30.2024 16.0979C29.3046 16.0979 28.5927 15.3866 28.5927 14.524C28.5927 13.6463 29.3201 12.9502 30.2024 12.9502Z" fill="black"/>
<path d="M61.8232 20.5342C61.9471 20.5342 62.0559 20.5342 62.1797 20.5645C64.3464 20.731 66.0487 22.5017 66.0488 24.6807V49.2422C66.0488 50.3618 65.6002 51.3757 64.8574 52.1172C64.0835 52.889 63.015 53.373 61.8232 53.373H50.9111C49.7195 53.373 48.6361 52.904 47.8623 52.1172C47.1194 51.3757 46.671 50.3619 46.6709 49.2422V24.6807C46.6711 22.3958 48.5742 20.5343 50.9111 20.5342H61.8232ZM50.9111 23.0586C49.9981 23.0587 49.255 23.785 49.2549 24.6777V49.2236C49.2549 50.1164 50.0135 50.8427 50.9111 50.8428V50.8584H61.8232C62.7208 50.8584 63.4636 50.1319 63.4639 49.2393V24.6777C63.4638 23.9062 62.9223 23.256 62.1797 23.1045C62.0559 23.0591 61.9471 23.0586 61.8232 23.0586H50.9111Z" fill="black"/>
<path d="M6.69073 23.0619C7.03125 21.6091 8.34688 20.5347 9.92564 20.5347H18.8255C20.4042 20.5347 21.7199 21.6091 22.0449 23.0619H6.69073Z" fill="#9CDCCB"/>
<path d="M23.9958 28.1133C24.2434 28.1133 24.4757 28.1431 24.7078 28.1885C26.178 28.5063 27.2926 29.7925 27.2927 31.3359V50.1465C27.2927 50.3885 27.261 50.6305 27.2146 50.8574C26.8896 52.3101 25.5745 53.3847 23.9958 53.3848H4.75659C3.17784 53.3848 1.86176 52.3102 1.52124 50.8574C1.47486 50.6306 1.44409 50.3884 1.44409 50.1465V31.3359C1.44423 29.7925 2.55873 28.5214 4.02905 28.1885C4.26121 28.1431 4.50896 28.1133 4.75659 28.1133H23.9958ZM15.2966 41.0537L12.3396 37.8604L6.95386 43.6865L8.8728 45.3818L12.3396 41.6289L15.2966 44.8213L21.782 37.7998L19.8777 36.1055L15.2966 41.0537Z" fill="#11AB85"/>
<path d="M59.5954 45.8057H53.1411C52.4291 45.8057 51.8564 46.3807 51.8564 47.0617C51.8564 47.7427 52.4446 48.3177 53.1411 48.3177H59.5954C60.3229 48.3177 60.8801 47.7427 60.8801 47.0617C60.8801 46.6682 60.6944 46.3202 60.4003 46.0932C60.1836 45.8965 59.8895 45.8057 59.58 45.8057H59.5954Z" fill="black"/>
</svg>
