<svg width="187" height="64" viewBox="0 0 187 64" fill="none" xmlns="http://www.w3.org/2000/svg">
<path d="M77.8023 26.9143V10.482H88.3523V13.959H81.4937V17.0788H87.4236V20.5557H81.4937V26.9143H77.8023Z" fill="black"/>
<path d="M94.2944 27.2001C91.6033 27.2001 89.8172 25.3902 89.8172 22.6276V14.7687H93.2941V21.5798C93.2941 22.9372 94.1515 23.8422 95.4613 23.8422C96.8664 23.8422 97.819 22.9134 97.819 21.5322V14.7687H101.296V22.58C101.296 23.1992 101.653 23.5564 102.272 23.5564H102.511V26.9143H101.534C99.8671 26.9143 98.7477 26.3666 98.2238 25.2711C97.2712 26.5333 95.9376 27.2001 94.2944 27.2001Z" fill="black"/>
<path d="M108.665 26.9143C105.879 26.9143 104.45 25.6283 104.45 23.1278V9.76758H107.927V22.3657C107.927 23.1278 108.38 23.5564 109.165 23.5564H109.904V26.9143H108.665Z" fill="black"/>
<path d="M115.666 26.9143C112.879 26.9143 111.45 25.6283 111.45 23.1278V9.76758H114.927V22.3657C114.927 23.1278 115.38 23.5564 116.166 23.5564H116.904V26.9143H115.666Z" fill="black"/>
<path d="M123.09 27.2001C119.994 27.2001 117.898 25.4854 117.898 23.223H121.375C121.375 23.9375 122.09 24.4376 123.09 24.4376C123.971 24.4376 124.614 24.0327 124.614 23.485C124.614 21.6989 118.089 22.7943 118.089 18.4124C118.089 15.8404 120.256 14.4829 122.923 14.4829C125.829 14.4829 127.877 16.1023 127.877 18.2933H124.424C124.424 17.6503 123.781 17.2217 122.9 17.2217C122.114 17.2217 121.518 17.5789 121.518 18.1266C121.518 19.8413 128.067 18.7934 128.067 23.1278C128.067 25.5569 126.043 27.2001 123.09 27.2001Z" fill="black"/>
<path d="M135.112 26.9143C132.564 26.9143 130.825 25.3664 130.825 23.0563V17.9361H129.015V14.7687H130.015C130.682 14.7687 131.016 14.4353 131.016 13.7685V11.5775H134.302V14.7687H138.279V17.9361H134.302V22.7229C134.302 23.3421 134.731 23.7469 135.326 23.7469C135.993 23.7469 136.398 23.2706 136.398 22.4847H139.494C139.494 25.1758 137.779 26.9143 135.112 26.9143Z" fill="black"/>
<path d="M146.751 27.2001C143.012 27.2001 140.202 24.4614 140.202 20.8415C140.202 17.2217 143.012 14.4829 146.751 14.4829C150.49 14.4829 153.3 17.2217 153.3 20.8415C153.3 24.4614 150.49 27.2001 146.751 27.2001ZM146.751 23.8422C148.466 23.8422 149.728 22.5562 149.728 20.8415C149.728 19.1268 148.466 17.8408 146.751 17.8408C145.037 17.8408 143.775 19.1268 143.775 20.8415C143.775 22.5562 145.037 23.8422 146.751 23.8422Z" fill="black"/>
<path d="M155.359 26.9143V14.7687H158.836V16.4596C159.765 15.2688 161.027 14.5782 162.504 14.5782H162.98V18.1504H162.504C160.146 18.1504 158.836 19.365 158.836 21.2464V26.9143H155.359Z" fill="black"/>
<path d="M165.624 31.6773V28.2956H165.982C167.387 28.2956 168.125 27.7955 168.744 26.6524L163.91 14.7687H167.887L170.697 22.4847L173.483 14.7687H177.365L171.792 28.4623C170.84 30.7962 169.292 31.6773 165.982 31.6773H165.624Z" fill="black"/>
<path d="M76.1829 50.0288L82.351 33.5965H86.7091L92.901 50.0288H88.8525L87.8522 47.1472H81.1602L80.1362 50.0288H76.1829ZM82.351 43.7417H86.6377L84.4943 37.6689L82.351 43.7417Z" fill="black"/>
<path d="M94.2404 50.0288V37.8832H97.7174V39.0739C98.67 38.0975 99.9084 37.5974 101.409 37.5974C104.195 37.5974 106.053 39.4312 106.053 42.2175V45.6945C106.053 46.3137 106.41 46.6709 107.029 46.6709H107.267V50.0288H106.291C103.838 50.0288 102.576 48.8143 102.576 46.4566V43.3844C102.576 41.9079 101.647 40.9553 100.242 40.9553C98.7414 40.9553 97.7174 41.9317 97.7174 43.4321V50.0288H94.2404Z" fill="black"/>
<path d="M114.13 50.3146C110.796 50.3146 108.272 47.5759 108.272 43.956C108.272 40.3361 110.796 37.5974 114.13 37.5974C115.607 37.5974 116.869 38.1452 117.798 39.0978V37.8832H121.275V45.6945C121.275 46.3137 121.632 46.6709 122.251 46.6709H122.489V50.0288H121.513C119.846 50.0288 118.75 49.4811 118.203 48.3856C117.226 49.5763 115.821 50.3146 114.13 50.3146ZM114.821 46.9567C116.536 46.9567 117.798 45.6707 117.798 43.956C117.798 42.2413 116.536 40.9553 114.821 40.9553C113.13 40.9553 111.868 42.2413 111.868 43.956C111.868 45.6707 113.13 46.9567 114.821 46.9567Z" fill="black"/>
<path d="M128.643 50.0288C125.857 50.0288 124.428 48.7428 124.428 46.2422V32.8821H127.905V45.4802C127.905 46.2422 128.357 46.6709 129.143 46.6709H129.881V50.0288H128.643Z" fill="black"/>
<path d="M131.576 54.7918V51.4101H131.934C133.339 51.4101 134.077 50.91 134.696 49.7668L129.862 37.8832H133.839L136.649 45.5992L139.435 37.8832H143.317L137.744 51.5768C136.792 53.9106 135.244 54.7918 131.934 54.7918H131.576Z" fill="black"/>
<path d="M150.485 50.0288C147.936 50.0288 146.198 48.4808 146.198 46.1708V41.0506H144.388V37.8832H145.388C146.055 37.8832 146.388 37.5498 146.388 36.883V34.692H149.675V37.8832H153.652V41.0506H149.675V45.8374C149.675 46.4566 150.104 46.8614 150.699 46.8614C151.366 46.8614 151.771 46.3851 151.771 45.5992H154.867C154.867 48.2903 153.152 50.0288 150.485 50.0288Z" fill="black"/>
<path d="M158.076 36.3829C156.861 36.3829 155.932 35.4779 155.932 34.2395C155.932 33.025 156.861 32.12 158.076 32.12C159.314 32.12 160.243 33.025 160.243 34.2395C160.243 35.4779 159.314 36.3829 158.076 36.3829ZM156.337 50.0288V37.8832H159.814V50.0288H156.337Z" fill="black"/>
<path d="M168.45 50.3146C164.711 50.3146 161.901 47.5759 161.901 43.956C161.901 40.3361 164.711 37.5974 168.45 37.5974C171.713 37.5974 174.308 39.7169 174.713 42.67H171.022C170.689 41.646 169.664 40.9553 168.45 40.9553C166.735 40.9553 165.473 42.2413 165.473 43.956C165.473 45.6707 166.735 46.9567 168.45 46.9567C169.664 46.9567 170.689 46.2661 171.022 45.242H174.713C174.308 48.1951 171.713 50.3146 168.45 50.3146Z" fill="black"/>
<path d="M181.186 50.3146C178.09 50.3146 175.994 48.5999 175.994 46.3375H179.471C179.471 47.0519 180.185 47.5521 181.186 47.5521C182.067 47.5521 182.71 47.1472 182.71 46.5995C182.71 44.8133 176.184 45.9088 176.184 41.5269C176.184 38.9549 178.352 37.5974 181.019 37.5974C183.924 37.5974 185.972 39.2168 185.972 41.4078H182.519C182.519 40.7648 181.876 40.3361 180.995 40.3361C180.209 40.3361 179.614 40.6934 179.614 41.2411C179.614 42.9558 186.163 41.9079 186.163 46.2422C186.163 48.6714 184.139 50.3146 181.186 50.3146Z" fill="black"/>
<path d="M22.7214 26.7265C22.483 26.6788 22.2445 26.647 21.9901 26.647H7.53966C7.28531 26.647 7.03095 26.6788 6.7925 26.7265C5.50483 27.0126 4.50331 28.0141 4.21716 29.3018H25.2967C25.0106 28.0141 23.9932 27.0126 22.7214 26.7265Z" fill="#269274"/>
<path d="M30.6859 47.8829V50.5377H45.2794V47.8829H30.6859ZM59.094 9.396H18.2066C15.5836 9.396 13.4216 11.5262 13.4216 14.181V20.0153H16.0764V14.181C16.0764 13.0205 17.0302 12.0508 18.2066 12.0508H59.094C60.2545 12.0508 61.2083 13.0046 61.2083 14.181V20.0153H63.8632V14.181C63.8632 11.5421 61.7329 9.396 59.094 9.396Z" fill="black"/>
<path d="M20.4014 14.7056C21.3234 14.7056 22.0547 15.4527 22.0547 16.3589C22.0547 17.2809 21.3075 18.0122 20.4014 18.0122C19.4793 18.0122 18.7481 17.265 18.7481 16.3589C18.7481 15.4368 19.4952 14.7056 20.4014 14.7056Z" fill="black"/>
<path d="M25.7108 14.7056C26.6328 14.7056 27.3641 15.4527 27.3641 16.3589C27.3641 17.2809 26.6169 18.0122 25.7108 18.0122C24.7887 18.0122 24.0575 17.265 24.0575 16.3589C24.0575 15.4368 24.8046 14.7056 25.7108 14.7056Z" fill="black"/>
<path d="M31.0202 14.7056C31.9422 14.7056 32.6735 15.4527 32.6735 16.3589C32.6735 17.2809 31.9263 18.0122 31.0202 18.0122C30.0981 18.0122 29.3669 17.265 29.3669 16.3589C29.3669 15.4368 30.114 14.7056 31.0202 14.7056Z" fill="black"/>
<path d="M63.4977 22.6724C63.6247 22.6724 63.7358 22.6728 63.8629 22.7046C66.0884 22.8794 67.8374 24.7388 67.8375 27.0278V52.8296C67.8374 54.0058 67.3759 55.0712 66.6129 55.8501C65.8181 56.6606 64.7215 57.1694 63.4977 57.1694H52.2897C51.0657 57.1693 49.9526 56.6767 49.1578 55.8501C48.3949 55.0712 47.9343 54.0058 47.9342 52.8296V27.0278C47.9344 24.6276 49.8895 22.6725 52.2897 22.6724H63.4977ZM52.2897 25.3237C51.3519 25.3239 50.5885 26.0871 50.5885 27.0249V52.8101C50.5885 53.7479 51.3678 54.5111 52.2897 54.5112V54.5269H63.4977C64.4196 54.5267 65.1823 53.7635 65.1823 52.8257V27.0249C65.1822 26.2142 64.626 25.5306 63.8629 25.3716C63.7359 25.324 63.6247 25.3237 63.4977 25.3237H52.2897Z" fill="black"/>
<path d="M6.87189 25.3272C7.22162 23.8011 8.57288 22.6724 10.1944 22.6724H19.3352C20.9567 22.6724 22.308 23.8011 22.6418 25.3272H6.87189Z" fill="#9CDCCB"/>
<path d="M24.6454 30.6338C24.8997 30.6338 25.1384 30.6652 25.3768 30.7129C26.8869 31.0467 28.031 32.3982 28.0311 34.0195V53.7803C28.0311 54.0345 27.9997 54.289 27.952 54.5273C27.6181 56.0534 26.2668 57.1816 24.6454 57.1816H4.88562C3.26415 57.1816 1.91215 56.0534 1.56238 54.5273C1.5147 54.289 1.4833 54.0345 1.48328 53.7803V34.0195C1.48344 32.3982 2.62843 31.0626 4.13855 30.7129C4.37686 30.6653 4.63145 30.6338 4.88562 30.6338H24.6454ZM15.7108 44.2275L12.6737 40.874L7.14148 46.9941L9.11316 48.7744L12.6737 44.832L15.7108 48.1865L22.371 40.8096L20.4159 39.0293L15.7108 44.2275Z" fill="#11AB85"/>
<path d="M61.2092 49.2192H54.5801C53.8489 49.2192 53.2607 49.8233 53.2607 50.5387C53.2607 51.2541 53.8648 51.8582 54.5801 51.8582H61.2092C61.9564 51.8582 62.5287 51.2541 62.5287 50.5387C62.5287 50.1254 62.3379 49.7597 62.0359 49.5213C61.8133 49.3146 61.5113 49.2192 61.1933 49.2192H61.2092Z" fill="black"/>
</svg>
