<svg width="65" height="64" viewBox="0 0 65 64" fill="none" xmlns="http://www.w3.org/2000/svg">
<path d="M53.7071 9.77051H16.1985C13.712 9.77051 11.6625 11.7898 11.6625 14.2914V19.8371H14.1792V14.2914C14.1792 13.1913 15.0834 12.2872 16.1985 12.2872H53.7071C54.8071 12.2872 55.7113 13.1763 55.7113 14.2914V14.8038H58.228V14.2914C58.228 11.8049 56.2086 9.77051 53.7071 9.77051ZM55.7113 31.1544V44.235C55.7113 45.335 54.8222 46.2543 53.7071 46.2543H31.8108V48.7709H53.7071C56.1936 48.7709 58.228 46.7365 58.228 44.235V31.1544H55.7113Z" fill="#FF6F94"/>
<path d="M18.2938 14.8032C19.1679 14.8032 19.8611 15.5115 19.8611 16.3705C19.8611 17.2445 19.1528 17.9377 18.2938 17.9377C17.4198 17.9377 16.7266 17.2294 16.7266 16.3705C16.7266 15.4964 17.4348 14.8032 18.2938 14.8032Z" fill="#FF6F94"/>
<path d="M23.3107 14.8032C24.1848 14.8032 24.878 15.5115 24.878 16.3705C24.878 17.2445 24.1697 17.9377 23.3107 17.9377C22.4367 17.9377 21.7435 17.2294 21.7435 16.3705C21.7435 15.4964 22.4517 14.8032 23.3107 14.8032Z" fill="#FF6F94"/>
<path d="M28.3451 14.8032C29.2191 14.8032 29.9123 15.5115 29.9123 16.3705C29.9123 17.2445 29.2041 17.9377 28.3451 17.9377C27.471 17.9377 26.7778 17.2294 26.7778 16.3705C26.7778 15.4964 27.4861 14.8032 28.3451 14.8032Z" fill="#FF6F94"/>
<path fill-rule="evenodd" clip-rule="evenodd" d="M25.511 22.3525C27.5906 22.3525 29.2786 24.0254 29.2786 26.1201V51.2861C29.2786 53.3507 27.6057 55.0537 25.511 55.0537H10.4114C8.34689 55.0536 6.6438 53.3657 6.6438 51.2861V26.1201C6.6438 24.0405 8.33182 22.3526 10.4114 22.3525H25.511ZM17.9612 42.4873C14.4954 42.4874 11.6772 45.2906 11.677 48.7715H24.2454C24.2452 45.3056 21.4271 42.4873 17.9612 42.4873ZM17.9612 33.6846C15.8805 33.6846 14.1936 35.3715 14.1936 37.4521C14.1938 39.5326 15.8807 41.2187 17.9612 41.2188C20.0418 41.2188 21.7286 39.5327 21.7288 37.4521C21.7288 35.3715 20.0419 33.6846 17.9612 33.6846ZM15.4592 26.0742C15.0825 26.0742 14.736 26.2249 14.51 26.4961C14.4648 26.5564 14.4341 26.6165 14.3889 26.6768C14.3136 26.8124 14.2687 26.9333 14.2385 27.084C14.2085 27.1593 14.2083 27.2496 14.2083 27.3398C14.2083 28.033 14.751 28.5908 15.4592 28.5908H20.4924C20.869 28.5908 21.2306 28.4101 21.4417 28.124C21.5019 28.0637 21.5326 28.0027 21.5627 27.9424C21.6379 27.807 21.683 27.6866 21.7131 27.5361C21.7432 27.4759 21.7434 27.4005 21.7434 27.3252V27.2793C21.7432 26.5863 21.2006 26.0293 20.4924 26.0293L15.4592 26.0742Z" fill="#FF6F94"/>
<path d="M55.7118 17.3198C55.7118 18.1788 55.5913 19.1885 55.3502 20.2584L55.7118 20.3488L57.8065 20.8311C58.0929 19.5652 58.2285 18.3898 58.2285 17.3349H55.7118V17.3198ZM55.7118 22.8956L54.6871 22.5339C54.6118 22.7299 54.5364 22.9559 54.446 23.1518C54.024 24.2519 53.5117 25.3218 52.9239 26.3164L54.446 27.2056L55.094 27.5974C55.305 27.2508 55.5159 26.874 55.6968 26.5124C56.2091 25.5027 56.6612 24.4629 57.038 23.3778L55.6968 22.8956H55.7118ZM31.8113 29.0441V31.9827C32.3839 32.3142 32.9566 32.6156 33.5292 32.9019L34.6444 30.6565C33.6799 30.1592 32.7305 29.6469 31.7962 29.0591L31.8113 29.0441ZM51.6129 28.2604C50.7388 29.3907 49.7744 30.3551 48.7496 31.0935L50.2415 33.128C51.4622 32.2388 52.5924 31.1086 53.6322 29.7975L51.628 28.2604H51.6129ZM39.1352 32.48C38.3515 32.2087 37.583 31.9374 36.8596 31.6361L35.9102 33.9568C36.6939 34.2883 37.5076 34.5897 38.3365 34.861C38.9995 35.072 39.6777 35.2528 40.3407 35.3733L40.8079 32.9019C40.2503 32.7964 39.7078 32.6608 39.1352 32.48ZM46.8056 32.2388C45.6151 32.7814 44.3342 33.0677 43.0382 33.0978L43.0834 35.6145C44.726 35.5693 46.3234 35.2076 47.8455 34.5294L46.8056 32.2388Z" fill="#FF6F94"/>
</svg>
