<svg width="296" height="64" viewBox="0 0 296 64" fill="none" xmlns="http://www.w3.org/2000/svg">
<path d="M76.5344 36.0783L71.0156 19.7917H75.0486L78.4212 31.0035L81.7939 19.7917H85.0957L88.5155 31.0035L91.841 19.7917H95.7797L90.2844 36.0783H86.6288L83.3976 25.4566L80.2137 36.0783H76.5344Z" fill="black"/>
<path d="M101.857 36.3615C98.154 36.3615 95.371 33.6471 95.371 30.0593C95.371 26.4715 98.154 23.7571 101.857 23.7571C105.56 23.7571 108.343 26.4715 108.343 30.0593C108.343 33.6471 105.56 36.3615 101.857 36.3615ZM101.857 33.0334C103.555 33.0334 104.805 31.7588 104.805 30.0593C104.805 28.3598 103.555 27.0852 101.857 27.0852C100.159 27.0852 98.9087 28.3598 98.9087 30.0593C98.9087 31.7588 100.159 33.0334 101.857 33.0334Z" fill="black"/>
<path d="M110.382 36.0783V24.0403H113.825V25.7162C114.745 24.536 115.995 23.8515 117.457 23.8515H117.929V27.3921H117.457C115.122 27.3921 113.825 28.5959 113.825 30.4606V36.0783H110.382Z" fill="black"/>
<path d="M119.595 36.0783V19.0835H123.039V28.6431L127.19 24.0403H131.553L126.577 29.3748L131.718 36.0783H127.308L124.195 31.924L123.039 33.1514V36.0783H119.595Z" fill="black"/>
<path d="M134.11 36.0783V27.3685H132.294V24.2292H134.11V22.6713C134.11 20.3581 135.856 18.8003 138.426 18.8003C141.068 18.8003 142.766 20.429 142.766 23.0018H139.7C139.7 22.3645 139.275 21.9396 138.615 21.9396C137.978 21.9396 137.554 22.3645 137.554 23.0018V24.2292H140.926V27.3685H137.554V36.0783H134.11Z" fill="black"/>
<path d="M148.267 36.3615C144.564 36.3615 141.781 33.6471 141.781 30.0593C141.781 26.4715 144.564 23.7571 148.267 23.7571C151.969 23.7571 154.752 26.4715 154.752 30.0593C154.752 33.6471 151.969 36.3615 148.267 36.3615ZM148.267 33.0334C149.965 33.0334 151.215 31.7588 151.215 30.0593C151.215 28.3598 149.965 27.0852 148.267 27.0852C146.568 27.0852 145.318 28.3598 145.318 30.0593C145.318 31.7588 146.568 33.0334 148.267 33.0334Z" fill="black"/>
<path d="M156.791 36.0783V24.0403H160.235V25.7162C161.154 24.536 162.404 23.8515 163.867 23.8515H164.338V27.3921H163.867C161.532 27.3921 160.235 28.5959 160.235 30.4606V36.0783H156.791Z" fill="black"/>
<path d="M171.483 36.3615C167.78 36.3615 164.997 33.6471 164.997 30.0593C164.997 26.4715 167.78 23.7571 171.483 23.7571C174.714 23.7571 177.285 25.8578 177.686 28.7847H174.03C173.7 27.7697 172.686 27.0852 171.483 27.0852C169.785 27.0852 168.535 28.3598 168.535 30.0593C168.535 31.7588 169.785 33.0334 171.483 33.0334C172.686 33.0334 173.7 32.3489 174.03 31.3339H177.686C177.285 34.2608 174.714 36.3615 171.483 36.3615Z" fill="black"/>
<path d="M185.487 36.3615C181.761 36.3615 178.978 33.6471 178.978 30.0593C178.978 26.4715 181.761 23.7571 185.463 23.7571C189.143 23.7571 191.949 26.4479 191.949 30.1301C191.949 30.4606 191.926 30.8618 191.855 31.1687H182.657C183.034 32.5377 184.143 33.4111 185.581 33.4111C186.69 33.4111 187.586 32.939 188.081 32.2781H191.761C190.864 34.7093 188.459 36.3615 185.487 36.3615ZM185.463 26.7076C184.096 26.7076 183.058 27.5573 182.68 28.8791H188.27C187.916 27.5573 186.831 26.7076 185.463 26.7076Z" fill="black"/>
<path d="M54.4896 7.9209H16.4346C13.9118 7.9209 11.8325 9.97131 11.8325 12.5114V18.1423H14.3858V12.5114C14.3858 11.3944 15.3032 10.4763 16.4346 10.4763H54.4896C55.6058 10.4763 56.5231 11.3791 56.5231 12.5114V13.0316H59.0764V12.5114C59.0764 9.98661 57.0277 7.9209 54.4896 7.9209ZM56.5231 29.6338V42.9156C56.5231 44.0326 55.621 44.966 54.4896 44.966H32.2743V47.5213H54.4896C57.0124 47.5213 59.0764 45.4556 59.0764 42.9156V29.6338H56.5231Z" fill="black"/>
<path d="M18.5604 13.0312C19.4472 13.0312 20.1505 13.7504 20.1505 14.6226C20.1505 15.5101 19.4319 16.214 18.5604 16.214C17.6736 16.214 16.9703 15.4948 16.9703 14.6226C16.9703 13.7351 17.6889 13.0312 18.5604 13.0312Z" fill="black"/>
<path d="M23.6504 13.0312C24.5372 13.0312 25.2405 13.7504 25.2405 14.6226C25.2405 15.5101 24.5219 16.214 23.6504 16.214C22.7636 16.214 22.0603 15.4948 22.0603 14.6226C22.0603 13.7351 22.7789 13.0312 23.6504 13.0312Z" fill="black"/>
<path d="M28.7581 13.0312C29.6449 13.0312 30.3482 13.7504 30.3482 14.6226C30.3482 15.5101 29.6296 16.214 28.7581 16.214C27.8714 16.214 27.1681 15.4948 27.1681 14.6226C27.1681 13.7351 27.8867 13.0312 28.7581 13.0312Z" fill="black"/>
<path fill-rule="evenodd" clip-rule="evenodd" d="M25.8831 20.6968C27.993 20.6968 29.7053 22.3952 29.7054 24.522V50.0757C29.7054 52.172 28.0083 53.9009 25.8831 53.9009H10.5628C8.46838 53.9007 6.74057 52.1872 6.74057 50.0757V24.522C6.74072 22.4106 8.45319 20.697 10.5628 20.6968H25.8831ZM18.223 41.1421C14.7065 41.1422 11.848 43.9883 11.848 47.5229H24.599C24.599 44.0036 21.7395 41.1421 18.223 41.1421ZM18.223 32.2026C16.112 32.2026 14.4007 33.9161 14.4007 36.0288C14.4009 38.1413 16.1121 39.854 18.223 39.854C20.3339 39.854 22.045 38.1413 22.0453 36.0288C22.0453 33.9161 20.334 32.2026 18.223 32.2026ZM15.6849 24.4761C15.3027 24.4761 14.9504 24.6284 14.721 24.9038C14.6752 24.9649 14.6447 25.0263 14.599 25.0874C14.5226 25.225 14.4772 25.3477 14.4466 25.5005C14.416 25.577 14.4154 25.6694 14.4154 25.7612C14.4155 26.465 14.9664 27.0308 15.6849 27.0308H20.7914C21.1734 27.0307 21.5402 26.8476 21.7542 26.5571C21.8152 26.4961 21.8458 26.4346 21.8763 26.3735C21.9527 26.236 21.9991 26.1133 22.0296 25.9604C22.0602 25.8992 22.0599 25.8221 22.0599 25.7456V25.6997C22.0598 24.996 21.5098 24.4303 20.7914 24.4302L15.6849 24.4761Z" fill="#FF6F94"/>
<path d="M56.5236 15.5864C56.5236 16.4586 56.4013 17.4838 56.1567 18.5702L56.5236 18.662L58.6488 19.1517C58.9393 17.8664 59.0769 16.6728 59.0769 15.6017H56.5236V15.5864ZM56.5236 21.248L55.4839 20.8808C55.4075 21.0797 55.331 21.3092 55.2393 21.5081C54.8112 22.6251 54.2914 23.7116 53.6951 24.7215L55.2393 25.6242L55.8967 26.0221C56.1108 25.6702 56.3248 25.2876 56.5083 24.9204C57.0281 23.8952 57.4868 22.8394 57.8691 21.7377L56.5083 21.248H56.5236ZM32.2748 27.491V30.4748C32.8558 30.8115 33.4368 31.1175 34.0178 31.4082L35.1492 29.1283C34.1707 28.6234 33.2074 28.1031 32.2595 27.5063L32.2748 27.491ZM52.3649 26.6954C51.4781 27.843 50.4996 28.8223 49.4599 29.5721L50.9736 31.6378C52.212 30.735 53.3587 29.5874 54.4137 28.2561L52.3802 26.6954H52.3649ZM39.7054 30.9798C38.9103 30.7044 38.1306 30.4289 37.3967 30.1229L36.4335 32.4793C37.2285 32.816 38.0541 33.122 38.895 33.3974C39.5678 33.6117 40.2558 33.7953 40.9285 33.9177L41.4025 31.4082C40.8368 31.3011 40.2864 31.1634 39.7054 30.9798ZM47.4876 30.735C46.2798 31.2858 44.9802 31.5766 43.6653 31.6072L43.7112 34.1625C45.3777 34.1166 46.9984 33.7494 48.5426 33.0608L47.4876 30.735Z" fill="#FF6F94"/>
</svg>
