<svg width="347" height="347" viewBox="0 0 347 347" fill="none" xmlns="http://www.w3.org/2000/svg">
<mask id="mask0_4225_2482" style="mask-type:alpha" maskUnits="userSpaceOnUse" x="0" y="0" width="347" height="347">
<rect width="347" height="347" fill="black"/>
</mask>
<g mask="url(#mask0_4225_2482)">
<rect width="347" height="347" fill="#135050"/>
<path d="M384.18 283.355V248.444H238.906L364.007 176.718L364.736 176.298L347.252 146.094L221.395 218.241L293.626 93.9805L294.046 93.2521L264.067 76.0489L263.646 75.7968L190.995 200.786V56.5203H155.945V200.926L83.742 76.6373L83.3217 75.9089L53.3423 93.112L52.922 93.3641L125.573 218.353L0.444112 146.627L-0.284361 146.206L-17.7677 176.41L108.062 248.556H-37.1842V283.383H93.8285C130.924 279.545 150.845 258.895 161.044 242.224C168.693 229.7 172.139 217.54 173.54 211.152C174.941 217.54 178.387 229.7 186.036 242.224C196.235 258.867 216.156 279.517 253.336 283.383H384.18V283.355Z" fill="white"/>
</g>
</svg>
