<svg width="324" height="174" viewBox="0 0 324 174" fill="none" xmlns="http://www.w3.org/2000/svg">
<path d="M323.18 173.979V147.203H211.757L307.707 92.1897L308.266 91.8674L294.857 68.7017L198.326 124.037L253.726 28.7314L254.048 28.1727L231.054 14.9781L230.732 14.7847L175.01 110.649V0H148.127V110.757L92.7484 15.4294L92.4261 14.8707L69.4324 28.0652L69.11 28.2586L124.832 124.123L28.8603 69.11L28.3016 68.7877L14.8922 91.9533L111.401 147.289H0V174H100.485C128.937 171.056 144.216 155.218 152.038 142.432C157.904 132.826 160.548 123.5 161.622 118.6C162.697 123.5 165.34 132.826 171.206 142.432C179.029 155.197 194.308 171.034 222.824 174H323.18V173.979Z" fill="white"/>
</svg>
